G04 #@! TF.FileFunction,Legend,Top*
%FSLAX46Y46*%
G04 Gerber Fmt 4.6, Leading zero omitted, Abs format (unit mm)*
G04 Created by KiCad (PCBNEW 4.0.2-stable) date Wednesday, February 14, 2018 'PMt' 02:08:58 PM*
%MOMM*%
G01*
G04 APERTURE LIST*
%ADD10C,0.100000*%
%ADD11C,0.200000*%
%ADD12C,0.250000*%
%ADD13C,0.300000*%
%ADD14C,0.175000*%
%ADD15C,0.381000*%
%ADD16C,0.150000*%
%ADD17C,0.120000*%
%ADD18C,0.010000*%
G04 APERTURE END LIST*
D10*
D11*
X225628553Y-98125000D02*
G75*
G03X225628553Y-98125000I-353553J0D01*
G01*
D12*
X212505953Y-99979762D02*
X212601191Y-100027381D01*
X212791667Y-100027381D01*
X212886906Y-99979762D01*
X212934525Y-99884524D01*
X212934525Y-99836905D01*
X212886906Y-99741667D01*
X212791667Y-99694048D01*
X212648810Y-99694048D01*
X212553572Y-99646429D01*
X212505953Y-99551190D01*
X212505953Y-99503571D01*
X212553572Y-99408333D01*
X212648810Y-99360714D01*
X212791667Y-99360714D01*
X212886906Y-99408333D01*
X213791668Y-100027381D02*
X213791668Y-99503571D01*
X213744049Y-99408333D01*
X213648811Y-99360714D01*
X213458334Y-99360714D01*
X213363096Y-99408333D01*
X213791668Y-99979762D02*
X213696430Y-100027381D01*
X213458334Y-100027381D01*
X213363096Y-99979762D01*
X213315477Y-99884524D01*
X213315477Y-99789286D01*
X213363096Y-99694048D01*
X213458334Y-99646429D01*
X213696430Y-99646429D01*
X213791668Y-99598810D01*
X214172620Y-100027381D02*
X214696430Y-99360714D01*
X214172620Y-99360714D02*
X214696430Y-100027381D01*
X215505954Y-100027381D02*
X215505954Y-99503571D01*
X215458335Y-99408333D01*
X215363097Y-99360714D01*
X215172620Y-99360714D01*
X215077382Y-99408333D01*
X215505954Y-99979762D02*
X215410716Y-100027381D01*
X215172620Y-100027381D01*
X215077382Y-99979762D01*
X215029763Y-99884524D01*
X215029763Y-99789286D01*
X215077382Y-99694048D01*
X215172620Y-99646429D01*
X215410716Y-99646429D01*
X215505954Y-99598810D01*
X215982144Y-99360714D02*
X215982144Y-100027381D01*
X215982144Y-99455952D02*
X216029763Y-99408333D01*
X216125001Y-99360714D01*
X216267859Y-99360714D01*
X216363097Y-99408333D01*
X216410716Y-99503571D01*
X216410716Y-100027381D01*
X216886906Y-100027381D02*
X216886906Y-99360714D01*
X216886906Y-99027381D02*
X216839287Y-99075000D01*
X216886906Y-99122619D01*
X216934525Y-99075000D01*
X216886906Y-99027381D01*
X216886906Y-99122619D01*
X217982144Y-99551190D02*
X217934525Y-99503571D01*
X217839287Y-99455952D01*
X217744049Y-99455952D01*
X217648811Y-99503571D01*
X217601191Y-99551190D01*
X217553572Y-99646429D01*
X217553572Y-99741667D01*
X217601191Y-99836905D01*
X217648811Y-99884524D01*
X217744049Y-99932143D01*
X217839287Y-99932143D01*
X217934525Y-99884524D01*
X217982144Y-99836905D01*
X217982144Y-99455952D02*
X217982144Y-99836905D01*
X218029763Y-99884524D01*
X218077382Y-99884524D01*
X218172620Y-99836905D01*
X218220239Y-99741667D01*
X218220239Y-99503571D01*
X218125001Y-99360714D01*
X217982144Y-99265476D01*
X217791668Y-99217857D01*
X217601191Y-99265476D01*
X217458334Y-99360714D01*
X217363096Y-99503571D01*
X217315477Y-99694048D01*
X217363096Y-99884524D01*
X217458334Y-100027381D01*
X217601191Y-100122619D01*
X217791668Y-100170238D01*
X217982144Y-100122619D01*
X218125001Y-100027381D01*
X218648810Y-100027381D02*
X218648810Y-99360714D01*
X218648810Y-99455952D02*
X218696429Y-99408333D01*
X218791667Y-99360714D01*
X218934525Y-99360714D01*
X219029763Y-99408333D01*
X219077382Y-99503571D01*
X219077382Y-100027381D01*
X219077382Y-99503571D02*
X219125001Y-99408333D01*
X219220239Y-99360714D01*
X219363096Y-99360714D01*
X219458334Y-99408333D01*
X219505953Y-99503571D01*
X219505953Y-100027381D01*
X219982143Y-100027381D02*
X219982143Y-99360714D01*
X219982143Y-99027381D02*
X219934524Y-99075000D01*
X219982143Y-99122619D01*
X220029762Y-99075000D01*
X219982143Y-99027381D01*
X219982143Y-99122619D01*
X220315476Y-99360714D02*
X220696428Y-99360714D01*
X220458333Y-99027381D02*
X220458333Y-99884524D01*
X220505952Y-99979762D01*
X220601190Y-100027381D01*
X220696428Y-100027381D01*
X221029762Y-99932143D02*
X221077381Y-99979762D01*
X221029762Y-100027381D01*
X220982143Y-99979762D01*
X221029762Y-99932143D01*
X221029762Y-100027381D01*
X221886905Y-99979762D02*
X221791667Y-100027381D01*
X221601190Y-100027381D01*
X221505952Y-99979762D01*
X221458333Y-99884524D01*
X221458333Y-99503571D01*
X221505952Y-99408333D01*
X221601190Y-99360714D01*
X221791667Y-99360714D01*
X221886905Y-99408333D01*
X221934524Y-99503571D01*
X221934524Y-99598810D01*
X221458333Y-99694048D01*
X222791667Y-100027381D02*
X222791667Y-99027381D01*
X222791667Y-99979762D02*
X222696429Y-100027381D01*
X222505952Y-100027381D01*
X222410714Y-99979762D01*
X222363095Y-99932143D01*
X222315476Y-99836905D01*
X222315476Y-99551190D01*
X222363095Y-99455952D01*
X222410714Y-99408333D01*
X222505952Y-99360714D01*
X222696429Y-99360714D01*
X222791667Y-99408333D01*
X223696429Y-99360714D02*
X223696429Y-100027381D01*
X223267857Y-99360714D02*
X223267857Y-99884524D01*
X223315476Y-99979762D01*
X223410714Y-100027381D01*
X223553572Y-100027381D01*
X223648810Y-99979762D01*
X223696429Y-99932143D01*
D11*
X155250000Y-84575000D02*
X160925000Y-84575000D01*
X153700000Y-86125000D02*
X155250000Y-84575000D01*
X153700000Y-91525000D02*
X153700000Y-86125000D01*
X155225000Y-93050000D02*
X160925000Y-93050000D01*
X155225000Y-93050000D02*
X153700000Y-91525000D01*
D13*
X165800000Y-72435714D02*
X165871428Y-72507143D01*
X165800000Y-72578571D01*
X165728571Y-72507143D01*
X165800000Y-72435714D01*
X165800000Y-72578571D01*
D12*
X199235194Y-59392301D02*
X199268866Y-59493316D01*
X199369881Y-59594331D01*
X199504569Y-59661675D01*
X199639255Y-59661675D01*
X199740271Y-59628004D01*
X199908629Y-59526988D01*
X200009645Y-59425973D01*
X200110660Y-59257614D01*
X200144332Y-59156599D01*
X200144332Y-59021912D01*
X200076988Y-58887224D01*
X200009644Y-58819881D01*
X199874957Y-58752538D01*
X199807614Y-58752538D01*
X199571912Y-58988240D01*
X199706599Y-59122926D01*
X199571912Y-58382149D02*
X198864805Y-59089255D01*
X199167851Y-57978087D01*
X198460744Y-58685194D01*
X198831133Y-57641370D02*
X198124027Y-58348477D01*
X197955668Y-58180118D01*
X197888324Y-58045431D01*
X197888324Y-57910744D01*
X197921996Y-57809729D01*
X198023011Y-57641370D01*
X198124027Y-57540354D01*
X198292385Y-57439339D01*
X198393400Y-57405667D01*
X198528087Y-57405667D01*
X198662775Y-57473012D01*
X198831133Y-57641370D01*
D13*
X171000000Y-53135714D02*
X171071428Y-53207143D01*
X171000000Y-53278571D01*
X170928571Y-53207143D01*
X171000000Y-53135714D01*
X171000000Y-53278571D01*
X160750000Y-53135714D02*
X160821428Y-53207143D01*
X160750000Y-53278571D01*
X160678571Y-53207143D01*
X160750000Y-53135714D01*
X160750000Y-53278571D01*
D11*
X204150000Y-58750000D02*
X207050000Y-58750000D01*
X204200000Y-65250000D02*
X205050000Y-65250000D01*
D13*
X163250000Y-53185714D02*
X163321428Y-53257143D01*
X163250000Y-53328571D01*
X163178571Y-53257143D01*
X163250000Y-53185714D01*
X163250000Y-53328571D01*
X160800000Y-72435714D02*
X160871428Y-72507143D01*
X160800000Y-72578571D01*
X160728571Y-72507143D01*
X160800000Y-72435714D01*
X160800000Y-72578571D01*
X148050000Y-72135714D02*
X148121428Y-72207143D01*
X148050000Y-72278571D01*
X147978571Y-72207143D01*
X148050000Y-72135714D01*
X148050000Y-72278571D01*
D11*
X143700000Y-89700000D02*
X141800000Y-89700000D01*
X143700000Y-92300000D02*
X143700000Y-89700000D01*
X143600000Y-87400000D02*
X141800000Y-87400000D01*
X143600000Y-85200000D02*
X143600000Y-87400000D01*
D12*
X198507699Y-98085194D02*
X198406684Y-98118866D01*
X198305669Y-98219881D01*
X198238325Y-98354569D01*
X198238325Y-98489255D01*
X198271996Y-98590271D01*
X198373012Y-98758629D01*
X198474027Y-98859645D01*
X198642386Y-98960660D01*
X198743401Y-98994332D01*
X198878088Y-98994332D01*
X199012776Y-98926988D01*
X199080119Y-98859644D01*
X199147462Y-98724957D01*
X199147462Y-98657614D01*
X198911760Y-98421912D01*
X198777074Y-98556599D01*
X199517851Y-98421912D02*
X198810745Y-97714805D01*
X199921913Y-98017851D01*
X199214806Y-97310744D01*
X200258630Y-97681133D02*
X199551523Y-96974027D01*
X199719882Y-96805668D01*
X199854569Y-96738324D01*
X199989256Y-96738324D01*
X200090271Y-96771996D01*
X200258630Y-96873011D01*
X200359646Y-96974027D01*
X200460661Y-97142385D01*
X200494333Y-97243400D01*
X200494333Y-97378087D01*
X200426988Y-97512775D01*
X200258630Y-97681133D01*
D11*
X160925000Y-84600000D02*
X160925000Y-93050000D01*
D12*
X170554762Y-86379762D02*
X170697619Y-86427381D01*
X170935715Y-86427381D01*
X171030953Y-86379762D01*
X171078572Y-86332143D01*
X171126191Y-86236905D01*
X171126191Y-86141667D01*
X171078572Y-86046429D01*
X171030953Y-85998810D01*
X170935715Y-85951190D01*
X170745238Y-85903571D01*
X170650000Y-85855952D01*
X170602381Y-85808333D01*
X170554762Y-85713095D01*
X170554762Y-85617857D01*
X170602381Y-85522619D01*
X170650000Y-85475000D01*
X170745238Y-85427381D01*
X170983334Y-85427381D01*
X171126191Y-85475000D01*
X171554762Y-86427381D02*
X171554762Y-85760714D01*
X171554762Y-85427381D02*
X171507143Y-85475000D01*
X171554762Y-85522619D01*
X171602381Y-85475000D01*
X171554762Y-85427381D01*
X171554762Y-85522619D01*
X172030952Y-86427381D02*
X172030952Y-85427381D01*
X172411905Y-85427381D01*
X172507143Y-85475000D01*
X172554762Y-85522619D01*
X172602381Y-85617857D01*
X172602381Y-85760714D01*
X172554762Y-85855952D01*
X172507143Y-85903571D01*
X172411905Y-85951190D01*
X172030952Y-85951190D01*
X173030952Y-86427381D02*
X173030952Y-85427381D01*
X173364286Y-86141667D01*
X173697619Y-85427381D01*
X173697619Y-86427381D01*
D11*
X192484948Y-106670492D02*
X192808197Y-106347243D01*
X193212258Y-107074553D02*
X192646573Y-106508867D01*
X193562444Y-106724367D02*
X192996759Y-106158681D01*
X193212258Y-105943182D01*
X193293071Y-105916244D01*
X193346945Y-105916244D01*
X193427758Y-105943182D01*
X193508569Y-106023994D01*
X193535507Y-106104806D01*
X193535507Y-106158680D01*
X193508569Y-106239493D01*
X193293070Y-106454992D01*
X194424442Y-105862369D02*
X194101193Y-106185618D01*
X194262817Y-106023994D02*
X193697131Y-105458309D01*
X193724069Y-105592995D01*
X193724069Y-105700745D01*
X193697131Y-105781557D01*
X194451379Y-104704061D02*
X194774628Y-104380812D01*
X195178689Y-105108122D02*
X194613004Y-104542437D01*
X195528875Y-104757936D02*
X194963190Y-104192250D01*
X195178689Y-103976751D01*
X195259501Y-103949813D01*
X195313376Y-103949813D01*
X195394188Y-103976751D01*
X195475000Y-104057563D01*
X195501938Y-104138375D01*
X195501938Y-104192250D01*
X195475000Y-104273062D01*
X195259501Y-104488561D01*
X195555812Y-103707377D02*
X195555812Y-103653502D01*
X195582750Y-103572690D01*
X195717437Y-103438003D01*
X195798249Y-103411066D01*
X195852124Y-103411065D01*
X195932936Y-103438003D01*
X195986811Y-103491877D01*
X196040686Y-103599627D01*
X196040686Y-104246125D01*
X196390872Y-103895939D01*
X196417810Y-102737631D02*
X196741058Y-102414382D01*
X197145120Y-103141691D02*
X196579434Y-102576006D01*
X197495306Y-102791505D02*
X196929620Y-102225820D01*
X197145120Y-102010320D01*
X197225932Y-101983382D01*
X197279807Y-101983382D01*
X197360619Y-102010320D01*
X197441431Y-102091132D01*
X197468369Y-102171944D01*
X197468369Y-102225819D01*
X197441431Y-102306631D01*
X197225931Y-102522131D01*
X197441431Y-101714009D02*
X197791618Y-101363823D01*
X197818555Y-101767884D01*
X197899367Y-101687071D01*
X197980179Y-101660134D01*
X198034054Y-101660134D01*
X198114866Y-101687071D01*
X198249553Y-101821758D01*
X198276491Y-101902570D01*
X198276491Y-101956446D01*
X198249553Y-102037258D01*
X198087929Y-102198882D01*
X198007117Y-102225820D01*
X197953242Y-102225819D01*
D12*
X157747620Y-52458333D02*
X157700000Y-52410714D01*
X157604762Y-52267857D01*
X157557143Y-52172619D01*
X157509524Y-52029762D01*
X157461905Y-51791667D01*
X157461905Y-51601190D01*
X157509524Y-51363095D01*
X157557143Y-51220238D01*
X157604762Y-51125000D01*
X157700000Y-50982143D01*
X157747620Y-50934524D01*
X158080953Y-52029762D02*
X158176191Y-52077381D01*
X158366667Y-52077381D01*
X158461906Y-52029762D01*
X158509525Y-51934524D01*
X158509525Y-51886905D01*
X158461906Y-51791667D01*
X158366667Y-51744048D01*
X158223810Y-51744048D01*
X158128572Y-51696429D01*
X158080953Y-51601190D01*
X158080953Y-51553571D01*
X158128572Y-51458333D01*
X158223810Y-51410714D01*
X158366667Y-51410714D01*
X158461906Y-51458333D01*
X159366668Y-52077381D02*
X159366668Y-51553571D01*
X159319049Y-51458333D01*
X159223811Y-51410714D01*
X159033334Y-51410714D01*
X158938096Y-51458333D01*
X159366668Y-52029762D02*
X159271430Y-52077381D01*
X159033334Y-52077381D01*
X158938096Y-52029762D01*
X158890477Y-51934524D01*
X158890477Y-51839286D01*
X158938096Y-51744048D01*
X159033334Y-51696429D01*
X159271430Y-51696429D01*
X159366668Y-51648810D01*
X159747620Y-52077381D02*
X160271430Y-51410714D01*
X159747620Y-51410714D02*
X160271430Y-52077381D01*
X161080954Y-52077381D02*
X161080954Y-51553571D01*
X161033335Y-51458333D01*
X160938097Y-51410714D01*
X160747620Y-51410714D01*
X160652382Y-51458333D01*
X161080954Y-52029762D02*
X160985716Y-52077381D01*
X160747620Y-52077381D01*
X160652382Y-52029762D01*
X160604763Y-51934524D01*
X160604763Y-51839286D01*
X160652382Y-51744048D01*
X160747620Y-51696429D01*
X160985716Y-51696429D01*
X161080954Y-51648810D01*
X161557144Y-51410714D02*
X161557144Y-52077381D01*
X161557144Y-51505952D02*
X161604763Y-51458333D01*
X161700001Y-51410714D01*
X161842859Y-51410714D01*
X161938097Y-51458333D01*
X161985716Y-51553571D01*
X161985716Y-52077381D01*
X162461906Y-52077381D02*
X162461906Y-51410714D01*
X162461906Y-51077381D02*
X162414287Y-51125000D01*
X162461906Y-51172619D01*
X162509525Y-51125000D01*
X162461906Y-51077381D01*
X162461906Y-51172619D01*
X163557144Y-51601190D02*
X163509525Y-51553571D01*
X163414287Y-51505952D01*
X163319049Y-51505952D01*
X163223811Y-51553571D01*
X163176191Y-51601190D01*
X163128572Y-51696429D01*
X163128572Y-51791667D01*
X163176191Y-51886905D01*
X163223811Y-51934524D01*
X163319049Y-51982143D01*
X163414287Y-51982143D01*
X163509525Y-51934524D01*
X163557144Y-51886905D01*
X163557144Y-51505952D02*
X163557144Y-51886905D01*
X163604763Y-51934524D01*
X163652382Y-51934524D01*
X163747620Y-51886905D01*
X163795239Y-51791667D01*
X163795239Y-51553571D01*
X163700001Y-51410714D01*
X163557144Y-51315476D01*
X163366668Y-51267857D01*
X163176191Y-51315476D01*
X163033334Y-51410714D01*
X162938096Y-51553571D01*
X162890477Y-51744048D01*
X162938096Y-51934524D01*
X163033334Y-52077381D01*
X163176191Y-52172619D01*
X163366668Y-52220238D01*
X163557144Y-52172619D01*
X163700001Y-52077381D01*
X164223810Y-52077381D02*
X164223810Y-51410714D01*
X164223810Y-51505952D02*
X164271429Y-51458333D01*
X164366667Y-51410714D01*
X164509525Y-51410714D01*
X164604763Y-51458333D01*
X164652382Y-51553571D01*
X164652382Y-52077381D01*
X164652382Y-51553571D02*
X164700001Y-51458333D01*
X164795239Y-51410714D01*
X164938096Y-51410714D01*
X165033334Y-51458333D01*
X165080953Y-51553571D01*
X165080953Y-52077381D01*
X165557143Y-52077381D02*
X165557143Y-51410714D01*
X165557143Y-51077381D02*
X165509524Y-51125000D01*
X165557143Y-51172619D01*
X165604762Y-51125000D01*
X165557143Y-51077381D01*
X165557143Y-51172619D01*
X165890476Y-51410714D02*
X166271428Y-51410714D01*
X166033333Y-51077381D02*
X166033333Y-51934524D01*
X166080952Y-52029762D01*
X166176190Y-52077381D01*
X166271428Y-52077381D01*
X166604762Y-51982143D02*
X166652381Y-52029762D01*
X166604762Y-52077381D01*
X166557143Y-52029762D01*
X166604762Y-51982143D01*
X166604762Y-52077381D01*
X167461905Y-52029762D02*
X167366667Y-52077381D01*
X167176190Y-52077381D01*
X167080952Y-52029762D01*
X167033333Y-51934524D01*
X167033333Y-51553571D01*
X167080952Y-51458333D01*
X167176190Y-51410714D01*
X167366667Y-51410714D01*
X167461905Y-51458333D01*
X167509524Y-51553571D01*
X167509524Y-51648810D01*
X167033333Y-51744048D01*
X168366667Y-52077381D02*
X168366667Y-51077381D01*
X168366667Y-52029762D02*
X168271429Y-52077381D01*
X168080952Y-52077381D01*
X167985714Y-52029762D01*
X167938095Y-51982143D01*
X167890476Y-51886905D01*
X167890476Y-51601190D01*
X167938095Y-51505952D01*
X167985714Y-51458333D01*
X168080952Y-51410714D01*
X168271429Y-51410714D01*
X168366667Y-51458333D01*
X169271429Y-51410714D02*
X169271429Y-52077381D01*
X168842857Y-51410714D02*
X168842857Y-51934524D01*
X168890476Y-52029762D01*
X168985714Y-52077381D01*
X169128572Y-52077381D01*
X169223810Y-52029762D01*
X169271429Y-51982143D01*
X169652381Y-52458333D02*
X169700000Y-52410714D01*
X169795238Y-52267857D01*
X169842857Y-52172619D01*
X169890476Y-52029762D01*
X169938095Y-51791667D01*
X169938095Y-51601190D01*
X169890476Y-51363095D01*
X169842857Y-51220238D01*
X169795238Y-51125000D01*
X169700000Y-50982143D01*
X169652381Y-50934524D01*
D14*
X159816667Y-92433332D02*
X159816667Y-91999999D01*
X160083333Y-92233332D01*
X160083333Y-92133332D01*
X160116667Y-92066665D01*
X160150000Y-92033332D01*
X160216667Y-91999999D01*
X160383333Y-91999999D01*
X160450000Y-92033332D01*
X160483333Y-92066665D01*
X160516667Y-92133332D01*
X160516667Y-92333332D01*
X160483333Y-92399999D01*
X160450000Y-92433332D01*
X160450000Y-91699998D02*
X160483333Y-91666665D01*
X160516667Y-91699998D01*
X160483333Y-91733332D01*
X160450000Y-91699998D01*
X160516667Y-91699998D01*
X159816667Y-91433332D02*
X159816667Y-90999999D01*
X160083333Y-91233332D01*
X160083333Y-91133332D01*
X160116667Y-91066665D01*
X160150000Y-91033332D01*
X160216667Y-90999999D01*
X160383333Y-90999999D01*
X160450000Y-91033332D01*
X160483333Y-91066665D01*
X160516667Y-91133332D01*
X160516667Y-91333332D01*
X160483333Y-91399999D01*
X160450000Y-91433332D01*
X159816667Y-90799998D02*
X160516667Y-90566665D01*
X159816667Y-90333332D01*
X160316667Y-89066666D02*
X160316667Y-88733332D01*
X160516667Y-89133332D02*
X159816667Y-88899999D01*
X160516667Y-88666666D01*
X159816667Y-88499999D02*
X159816667Y-88066666D01*
X160083333Y-88299999D01*
X160083333Y-88199999D01*
X160116667Y-88133332D01*
X160150000Y-88099999D01*
X160216667Y-88066666D01*
X160383333Y-88066666D01*
X160450000Y-88099999D01*
X160483333Y-88133332D01*
X160516667Y-88199999D01*
X160516667Y-88399999D01*
X160483333Y-88466666D01*
X160450000Y-88499999D01*
X159850000Y-86333333D02*
X159816667Y-86399999D01*
X159816667Y-86499999D01*
X159850000Y-86599999D01*
X159916667Y-86666666D01*
X159983333Y-86699999D01*
X160116667Y-86733333D01*
X160216667Y-86733333D01*
X160350000Y-86699999D01*
X160416667Y-86666666D01*
X160483333Y-86599999D01*
X160516667Y-86499999D01*
X160516667Y-86433333D01*
X160483333Y-86333333D01*
X160450000Y-86299999D01*
X160216667Y-86299999D01*
X160216667Y-86433333D01*
X160516667Y-85999999D02*
X159816667Y-85999999D01*
X160516667Y-85599999D01*
X159816667Y-85599999D01*
X160516667Y-85266666D02*
X159816667Y-85266666D01*
X159816667Y-85100000D01*
X159850000Y-85000000D01*
X159916667Y-84933333D01*
X159983333Y-84900000D01*
X160116667Y-84866666D01*
X160216667Y-84866666D01*
X160350000Y-84900000D01*
X160416667Y-84933333D01*
X160483333Y-85000000D01*
X160516667Y-85100000D01*
X160516667Y-85266666D01*
D12*
X154402381Y-90533333D02*
X154402381Y-89961904D01*
X155402381Y-90247619D02*
X154402381Y-90247619D01*
X155354762Y-89247618D02*
X155402381Y-89342856D01*
X155402381Y-89533333D01*
X155354762Y-89628571D01*
X155259524Y-89676190D01*
X154878571Y-89676190D01*
X154783333Y-89628571D01*
X154735714Y-89533333D01*
X154735714Y-89342856D01*
X154783333Y-89247618D01*
X154878571Y-89199999D01*
X154973810Y-89199999D01*
X155069048Y-89676190D01*
X155402381Y-88771428D02*
X154735714Y-88771428D01*
X154830952Y-88771428D02*
X154783333Y-88723809D01*
X154735714Y-88628571D01*
X154735714Y-88485713D01*
X154783333Y-88390475D01*
X154878571Y-88342856D01*
X155402381Y-88342856D01*
X154878571Y-88342856D02*
X154783333Y-88295237D01*
X154735714Y-88199999D01*
X154735714Y-88057142D01*
X154783333Y-87961904D01*
X154878571Y-87914285D01*
X155402381Y-87914285D01*
X154735714Y-87438095D02*
X155735714Y-87438095D01*
X154783333Y-87438095D02*
X154735714Y-87342857D01*
X154735714Y-87152380D01*
X154783333Y-87057142D01*
X154830952Y-87009523D01*
X154926190Y-86961904D01*
X155211905Y-86961904D01*
X155307143Y-87009523D01*
X155354762Y-87057142D01*
X155402381Y-87152380D01*
X155402381Y-87342857D01*
X155354762Y-87438095D01*
D13*
X168400000Y-53135714D02*
X168471428Y-53207143D01*
X168400000Y-53278571D01*
X168328571Y-53207143D01*
X168400000Y-53135714D01*
X168400000Y-53278571D01*
X168400000Y-53135714D02*
X168471428Y-53207143D01*
X168400000Y-53278571D01*
X168328571Y-53207143D01*
X168400000Y-53135714D01*
X168400000Y-53278571D01*
X145550000Y-72085714D02*
X145621428Y-72157143D01*
X145550000Y-72228571D01*
X145478571Y-72157143D01*
X145550000Y-72085714D01*
X145550000Y-72228571D01*
X152800000Y-71935714D02*
X152871428Y-72007143D01*
X152800000Y-72078571D01*
X152728571Y-72007143D01*
X152800000Y-71935714D01*
X152800000Y-72078571D01*
X163300000Y-72435714D02*
X163371428Y-72507143D01*
X163300000Y-72578571D01*
X163228571Y-72507143D01*
X163300000Y-72435714D01*
X163300000Y-72578571D01*
X173500000Y-72335714D02*
X173571428Y-72407143D01*
X173500000Y-72478571D01*
X173428571Y-72407143D01*
X173500000Y-72335714D01*
X173500000Y-72478571D01*
X176100000Y-72335714D02*
X176171428Y-72407143D01*
X176100000Y-72478571D01*
X176028571Y-72407143D01*
X176100000Y-72335714D01*
X176100000Y-72478571D01*
X178600000Y-72435714D02*
X178671428Y-72507143D01*
X178600000Y-72578571D01*
X178528571Y-72507143D01*
X178600000Y-72435714D01*
X178600000Y-72578571D01*
X173500000Y-53235714D02*
X173571428Y-53307143D01*
X173500000Y-53378571D01*
X173428571Y-53307143D01*
X173500000Y-53235714D01*
X173500000Y-53378571D01*
X150700000Y-53135714D02*
X150771428Y-53207143D01*
X150700000Y-53278571D01*
X150628571Y-53207143D01*
X150700000Y-53135714D01*
X150700000Y-53278571D01*
X148100000Y-53135714D02*
X148171428Y-53207143D01*
X148100000Y-53278571D01*
X148028571Y-53207143D01*
X148100000Y-53135714D01*
X148100000Y-53278571D01*
X145600000Y-53135714D02*
X145671428Y-53207143D01*
X145600000Y-53278571D01*
X145528571Y-53207143D01*
X145600000Y-53135714D01*
X145600000Y-53278571D01*
D11*
X202600000Y-62300000D02*
X203800000Y-62300000D01*
X203200000Y-62200000D02*
X203200000Y-62800000D01*
X203800000Y-61600000D02*
X203700000Y-61700000D01*
X203200000Y-61600000D02*
X203800000Y-61600000D01*
X203200000Y-62200000D02*
X203700000Y-61700000D01*
X202600000Y-61600000D02*
X203200000Y-62200000D01*
X203200000Y-61600000D02*
X202600000Y-61600000D01*
X203200000Y-61000000D02*
X203200000Y-61600000D01*
D12*
X201952381Y-62242857D02*
X201952381Y-62719048D01*
X200952381Y-62719048D01*
X201428571Y-61909524D02*
X201428571Y-61576190D01*
X201952381Y-61433333D02*
X201952381Y-61909524D01*
X200952381Y-61909524D01*
X200952381Y-61433333D01*
X201952381Y-61004762D02*
X200952381Y-61004762D01*
X200952381Y-60766667D01*
X201000000Y-60623809D01*
X201095238Y-60528571D01*
X201190476Y-60480952D01*
X201380952Y-60433333D01*
X201523810Y-60433333D01*
X201714286Y-60480952D01*
X201809524Y-60528571D01*
X201904762Y-60623809D01*
X201952381Y-60766667D01*
X201952381Y-61004762D01*
D11*
X150653000Y-92284000D02*
X150653000Y-88855000D01*
X149510000Y-92284000D02*
X150653000Y-92284000D01*
X143668000Y-92284000D02*
X146335000Y-92284000D01*
X150261905Y-89961905D02*
X149880952Y-90228572D01*
X150261905Y-90419048D02*
X149461905Y-90419048D01*
X149461905Y-90114286D01*
X149500000Y-90038095D01*
X149538095Y-90000000D01*
X149614286Y-89961905D01*
X149728571Y-89961905D01*
X149804762Y-90000000D01*
X149842857Y-90038095D01*
X149880952Y-90114286D01*
X149880952Y-90419048D01*
X149842857Y-89619048D02*
X149842857Y-89352381D01*
X150261905Y-89238095D02*
X150261905Y-89619048D01*
X149461905Y-89619048D01*
X149461905Y-89238095D01*
X150223810Y-88933333D02*
X150261905Y-88819047D01*
X150261905Y-88628571D01*
X150223810Y-88552381D01*
X150185714Y-88514285D01*
X150109524Y-88476190D01*
X150033333Y-88476190D01*
X149957143Y-88514285D01*
X149919048Y-88552381D01*
X149880952Y-88628571D01*
X149842857Y-88780952D01*
X149804762Y-88857143D01*
X149766667Y-88895238D01*
X149690476Y-88933333D01*
X149614286Y-88933333D01*
X149538095Y-88895238D01*
X149500000Y-88857143D01*
X149461905Y-88780952D01*
X149461905Y-88590476D01*
X149500000Y-88476190D01*
X149842857Y-88133333D02*
X149842857Y-87866666D01*
X150261905Y-87752380D02*
X150261905Y-88133333D01*
X149461905Y-88133333D01*
X149461905Y-87752380D01*
X149461905Y-87523809D02*
X149461905Y-87066666D01*
X150261905Y-87295237D02*
X149461905Y-87295237D01*
X146335000Y-85172000D02*
X143668000Y-85172000D01*
X150526000Y-85172000D02*
X149637000Y-85172000D01*
X150653000Y-88855000D02*
X150653000Y-85172000D01*
X153817857Y-96961904D02*
X153855952Y-96847618D01*
X153894048Y-96809523D01*
X153970238Y-96771428D01*
X154084524Y-96771428D01*
X154160714Y-96809523D01*
X154198810Y-96847618D01*
X154236905Y-96923809D01*
X154236905Y-97228571D01*
X153436905Y-97228571D01*
X153436905Y-96961904D01*
X153475000Y-96885714D01*
X153513095Y-96847618D01*
X153589286Y-96809523D01*
X153665476Y-96809523D01*
X153741667Y-96847618D01*
X153779762Y-96885714D01*
X153817857Y-96961904D01*
X153817857Y-97228571D01*
X154236905Y-96428571D02*
X153436905Y-96428571D01*
X154236905Y-95971428D01*
X153436905Y-95971428D01*
X154160714Y-95133333D02*
X154198810Y-95171428D01*
X154236905Y-95285714D01*
X154236905Y-95361904D01*
X154198810Y-95476190D01*
X154122619Y-95552381D01*
X154046429Y-95590476D01*
X153894048Y-95628571D01*
X153779762Y-95628571D01*
X153627381Y-95590476D01*
X153551190Y-95552381D01*
X153475000Y-95476190D01*
X153436905Y-95361904D01*
X153436905Y-95285714D01*
X153475000Y-95171428D01*
X153513095Y-95133333D01*
D15*
X141740000Y-56450000D02*
X184920000Y-56450000D01*
X184920000Y-56450000D02*
X184920000Y-69150000D01*
X184920000Y-69150000D02*
X141740000Y-69150000D01*
X141740000Y-69150000D02*
X141740000Y-56450000D01*
X141740000Y-64070000D02*
X143010000Y-64070000D01*
X143010000Y-64070000D02*
X143010000Y-61530000D01*
X143010000Y-61530000D02*
X141740000Y-61530000D01*
D16*
X169620000Y-77324000D02*
X169620000Y-84944000D01*
X169620000Y-84944000D02*
X174700000Y-84944000D01*
X174700000Y-84944000D02*
X174700000Y-77324000D01*
X174700000Y-77324000D02*
X169620000Y-77324000D01*
X223750000Y-97500000D02*
X223750000Y-97225000D01*
X218200000Y-97500000D02*
X218200000Y-97145000D01*
X218200000Y-86950000D02*
X218200000Y-87305000D01*
X223750000Y-86950000D02*
X223750000Y-87305000D01*
X223750000Y-97500000D02*
X218200000Y-97500000D01*
X223750000Y-86950000D02*
X218200000Y-86950000D01*
X223750000Y-97225000D02*
X225275000Y-97225000D01*
X158150000Y-76275000D02*
X158150000Y-78575000D01*
X142450000Y-75875000D02*
X142650000Y-75875000D01*
X142650000Y-75875000D02*
X142650000Y-75375000D01*
X142650000Y-75375000D02*
X144050000Y-75375000D01*
X140850000Y-80475000D02*
X142150000Y-80475000D01*
X142450000Y-75875000D02*
X140850000Y-75875000D01*
X140850000Y-75875000D02*
X140850000Y-80475000D01*
X146850000Y-75375000D02*
X146250000Y-75375000D01*
X158150000Y-76275000D02*
X158150000Y-75375000D01*
X158150000Y-75375000D02*
X149050000Y-75375000D01*
X158150000Y-80075000D02*
X158150000Y-78575000D01*
X156550000Y-80975000D02*
X158150000Y-80975000D01*
X158150000Y-80975000D02*
X158150000Y-80075000D01*
X147150000Y-80975000D02*
X154350000Y-80975000D01*
X144350000Y-80975000D02*
X144950000Y-80975000D01*
D17*
X204210000Y-61970000D02*
X204210000Y-64630000D01*
X204210000Y-64630000D02*
X206990000Y-64630000D01*
X206990000Y-64630000D02*
X206990000Y-61970000D01*
X206990000Y-61970000D02*
X204210000Y-61970000D01*
X204210000Y-60700000D02*
X204210000Y-59310000D01*
X204210000Y-59310000D02*
X205600000Y-59310000D01*
D16*
X141700000Y-109000000D02*
X141600000Y-109000000D01*
X154900000Y-109000000D02*
X141700000Y-109000000D01*
X154900000Y-94400000D02*
X154900000Y-109000000D01*
X141600000Y-94300000D02*
X154900000Y-94400000D01*
X141600000Y-109000000D02*
X141600000Y-94300000D01*
X141600000Y-109000000D02*
X141600000Y-95700000D01*
X141600000Y-95700000D02*
X141600000Y-109000000D01*
D17*
X156260000Y-87570000D02*
X156260000Y-92770000D01*
X156260000Y-92770000D02*
X159040000Y-92770000D01*
X159040000Y-92770000D02*
X159040000Y-87570000D01*
X159040000Y-87570000D02*
X156260000Y-87570000D01*
X156260000Y-86300000D02*
X156260000Y-84910000D01*
X156260000Y-84910000D02*
X157650000Y-84910000D01*
D18*
G36*
X204503471Y-76196723D02*
X204545583Y-76092917D01*
X204655552Y-76007927D01*
X204865927Y-75914403D01*
X205130048Y-75814441D01*
X205415784Y-75699088D01*
X205618100Y-75599670D01*
X205703709Y-75533211D01*
X205701548Y-75522144D01*
X205594996Y-75466252D01*
X205376621Y-75375379D01*
X205107899Y-75274402D01*
X204831772Y-75168174D01*
X204625620Y-75075669D01*
X204536099Y-75018640D01*
X204589086Y-74959518D01*
X204765662Y-74861819D01*
X205030223Y-74744695D01*
X205089033Y-74721224D01*
X205372989Y-74602979D01*
X205582796Y-74502580D01*
X205679580Y-74438926D01*
X205682000Y-74432948D01*
X205608428Y-74379439D01*
X205414956Y-74291244D01*
X205142445Y-74186865D01*
X205124468Y-74180490D01*
X204785159Y-74046393D01*
X204586764Y-73924682D01*
X204504373Y-73793455D01*
X204510672Y-73640832D01*
X204555971Y-73602362D01*
X204677842Y-73611120D01*
X204897073Y-73672652D01*
X205234450Y-73792506D01*
X205589602Y-73928722D01*
X205986476Y-74087581D01*
X206328591Y-74231777D01*
X206583504Y-74347110D01*
X206718771Y-74419379D01*
X206728368Y-74427169D01*
X206766964Y-74533209D01*
X206667872Y-74648819D01*
X206420721Y-74782182D01*
X206129614Y-74899650D01*
X205646884Y-75079778D01*
X206187112Y-75286065D01*
X206525122Y-75429074D01*
X206711519Y-75547362D01*
X206759750Y-75654007D01*
X206683260Y-75762087D01*
X206679653Y-75765097D01*
X206564494Y-75827676D01*
X206329941Y-75934461D01*
X206014870Y-76069465D01*
X205658160Y-76216698D01*
X205298687Y-76360170D01*
X204975329Y-76483892D01*
X204726964Y-76571874D01*
X204687166Y-76584563D01*
X204559903Y-76606049D01*
X204506960Y-76536046D01*
X204496666Y-76346697D01*
X204503471Y-76196723D01*
X204503471Y-76196723D01*
G37*
X204503471Y-76196723D02*
X204545583Y-76092917D01*
X204655552Y-76007927D01*
X204865927Y-75914403D01*
X205130048Y-75814441D01*
X205415784Y-75699088D01*
X205618100Y-75599670D01*
X205703709Y-75533211D01*
X205701548Y-75522144D01*
X205594996Y-75466252D01*
X205376621Y-75375379D01*
X205107899Y-75274402D01*
X204831772Y-75168174D01*
X204625620Y-75075669D01*
X204536099Y-75018640D01*
X204589086Y-74959518D01*
X204765662Y-74861819D01*
X205030223Y-74744695D01*
X205089033Y-74721224D01*
X205372989Y-74602979D01*
X205582796Y-74502580D01*
X205679580Y-74438926D01*
X205682000Y-74432948D01*
X205608428Y-74379439D01*
X205414956Y-74291244D01*
X205142445Y-74186865D01*
X205124468Y-74180490D01*
X204785159Y-74046393D01*
X204586764Y-73924682D01*
X204504373Y-73793455D01*
X204510672Y-73640832D01*
X204555971Y-73602362D01*
X204677842Y-73611120D01*
X204897073Y-73672652D01*
X205234450Y-73792506D01*
X205589602Y-73928722D01*
X205986476Y-74087581D01*
X206328591Y-74231777D01*
X206583504Y-74347110D01*
X206718771Y-74419379D01*
X206728368Y-74427169D01*
X206766964Y-74533209D01*
X206667872Y-74648819D01*
X206420721Y-74782182D01*
X206129614Y-74899650D01*
X205646884Y-75079778D01*
X206187112Y-75286065D01*
X206525122Y-75429074D01*
X206711519Y-75547362D01*
X206759750Y-75654007D01*
X206683260Y-75762087D01*
X206679653Y-75765097D01*
X206564494Y-75827676D01*
X206329941Y-75934461D01*
X206014870Y-76069465D01*
X205658160Y-76216698D01*
X205298687Y-76360170D01*
X204975329Y-76483892D01*
X204726964Y-76571874D01*
X204687166Y-76584563D01*
X204559903Y-76606049D01*
X204506960Y-76536046D01*
X204496666Y-76346697D01*
X204503471Y-76196723D01*
G36*
X204539279Y-71087164D02*
X204694411Y-71045289D01*
X204750666Y-71044000D01*
X204932193Y-71021219D01*
X204998600Y-70924379D01*
X205004666Y-70832333D01*
X205048827Y-70662095D01*
X205131666Y-70620667D01*
X205233809Y-70694268D01*
X205258666Y-70832333D01*
X205268278Y-70945989D01*
X205322580Y-71009363D01*
X205459776Y-71037107D01*
X205718067Y-71043871D01*
X205810613Y-71044000D01*
X206105965Y-71041228D01*
X206266534Y-71023139D01*
X206326869Y-70975071D01*
X206321517Y-70882367D01*
X206309434Y-70832333D01*
X206296619Y-70668895D01*
X206381063Y-70620669D01*
X206382121Y-70620667D01*
X206559115Y-70695064D01*
X206684179Y-70882231D01*
X206734524Y-71128129D01*
X206694572Y-71361500D01*
X206642952Y-71456604D01*
X206555905Y-71513479D01*
X206394989Y-71541814D01*
X206121760Y-71551298D01*
X205938728Y-71552000D01*
X205600438Y-71555508D01*
X205397432Y-71571677D01*
X205295711Y-71608971D01*
X205261277Y-71675856D01*
X205258666Y-71721333D01*
X205223669Y-71866659D01*
X205129175Y-71862276D01*
X204990930Y-71710172D01*
X204974326Y-71685422D01*
X204815909Y-71513638D01*
X204668255Y-71425716D01*
X204529434Y-71313913D01*
X204496666Y-71207628D01*
X204539279Y-71087164D01*
X204539279Y-71087164D01*
G37*
X204539279Y-71087164D02*
X204694411Y-71045289D01*
X204750666Y-71044000D01*
X204932193Y-71021219D01*
X204998600Y-70924379D01*
X205004666Y-70832333D01*
X205048827Y-70662095D01*
X205131666Y-70620667D01*
X205233809Y-70694268D01*
X205258666Y-70832333D01*
X205268278Y-70945989D01*
X205322580Y-71009363D01*
X205459776Y-71037107D01*
X205718067Y-71043871D01*
X205810613Y-71044000D01*
X206105965Y-71041228D01*
X206266534Y-71023139D01*
X206326869Y-70975071D01*
X206321517Y-70882367D01*
X206309434Y-70832333D01*
X206296619Y-70668895D01*
X206381063Y-70620669D01*
X206382121Y-70620667D01*
X206559115Y-70695064D01*
X206684179Y-70882231D01*
X206734524Y-71128129D01*
X206694572Y-71361500D01*
X206642952Y-71456604D01*
X206555905Y-71513479D01*
X206394989Y-71541814D01*
X206121760Y-71551298D01*
X205938728Y-71552000D01*
X205600438Y-71555508D01*
X205397432Y-71571677D01*
X205295711Y-71608971D01*
X205261277Y-71675856D01*
X205258666Y-71721333D01*
X205223669Y-71866659D01*
X205129175Y-71862276D01*
X204990930Y-71710172D01*
X204974326Y-71685422D01*
X204815909Y-71513638D01*
X204668255Y-71425716D01*
X204529434Y-71313913D01*
X204496666Y-71207628D01*
X204539279Y-71087164D01*
G36*
X204984591Y-72581730D02*
X205061820Y-72336950D01*
X205223689Y-72178230D01*
X205493869Y-72094180D01*
X205896031Y-72073410D01*
X206032907Y-72077277D01*
X206655666Y-72102333D01*
X206676150Y-72710802D01*
X206677008Y-73069914D01*
X206646418Y-73299155D01*
X206578717Y-73436012D01*
X206564269Y-73451636D01*
X206351869Y-73568831D01*
X206278034Y-73558007D01*
X206278034Y-72985123D01*
X206346397Y-72912082D01*
X206343650Y-72843167D01*
X206239067Y-72716576D01*
X206063488Y-72666284D01*
X205892471Y-72652953D01*
X205869277Y-72692169D01*
X205971501Y-72814451D01*
X206139778Y-72951554D01*
X206278034Y-72985123D01*
X206278034Y-73558007D01*
X206125678Y-73535670D01*
X205910594Y-73366651D01*
X205731514Y-73076274D01*
X205677442Y-72935191D01*
X205563332Y-72716348D01*
X205423539Y-72661053D01*
X205265106Y-72771969D01*
X205260418Y-72777556D01*
X205212237Y-72880482D01*
X205295846Y-72962845D01*
X205372393Y-73000691D01*
X205584860Y-73146695D01*
X205631318Y-73318155D01*
X205563648Y-73459490D01*
X205422591Y-73560055D01*
X205274457Y-73521916D01*
X205138131Y-73373700D01*
X205032500Y-73144035D01*
X204976448Y-72861548D01*
X204984591Y-72581730D01*
X204984591Y-72581730D01*
G37*
X204984591Y-72581730D02*
X205061820Y-72336950D01*
X205223689Y-72178230D01*
X205493869Y-72094180D01*
X205896031Y-72073410D01*
X206032907Y-72077277D01*
X206655666Y-72102333D01*
X206676150Y-72710802D01*
X206677008Y-73069914D01*
X206646418Y-73299155D01*
X206578717Y-73436012D01*
X206564269Y-73451636D01*
X206351869Y-73568831D01*
X206278034Y-73558007D01*
X206278034Y-72985123D01*
X206346397Y-72912082D01*
X206343650Y-72843167D01*
X206239067Y-72716576D01*
X206063488Y-72666284D01*
X205892471Y-72652953D01*
X205869277Y-72692169D01*
X205971501Y-72814451D01*
X206139778Y-72951554D01*
X206278034Y-72985123D01*
X206278034Y-73558007D01*
X206125678Y-73535670D01*
X205910594Y-73366651D01*
X205731514Y-73076274D01*
X205677442Y-72935191D01*
X205563332Y-72716348D01*
X205423539Y-72661053D01*
X205265106Y-72771969D01*
X205260418Y-72777556D01*
X205212237Y-72880482D01*
X205295846Y-72962845D01*
X205372393Y-73000691D01*
X205584860Y-73146695D01*
X205631318Y-73318155D01*
X205563648Y-73459490D01*
X205422591Y-73560055D01*
X205274457Y-73521916D01*
X205138131Y-73373700D01*
X205032500Y-73144035D01*
X204976448Y-72861548D01*
X204984591Y-72581730D01*
G36*
X205046408Y-69204192D02*
X205092312Y-69091101D01*
X205245731Y-68952236D01*
X205442760Y-68946138D01*
X205592841Y-69048921D01*
X205638324Y-69213111D01*
X205578388Y-69391323D01*
X205446864Y-69507728D01*
X205382687Y-69520000D01*
X205274595Y-69571940D01*
X205274679Y-69690908D01*
X205374000Y-69821629D01*
X205438343Y-69864203D01*
X205678021Y-69917611D01*
X205967125Y-69887820D01*
X206214634Y-69786226D01*
X206245430Y-69763130D01*
X206350558Y-69598524D01*
X206296337Y-69404215D01*
X206132931Y-69217426D01*
X205987085Y-69048418D01*
X205982589Y-68934431D01*
X205996841Y-68917292D01*
X206135500Y-68884755D01*
X206330627Y-68954327D01*
X206526055Y-69101680D01*
X206589473Y-69173997D01*
X206681740Y-69409499D01*
X206692192Y-69713154D01*
X206626079Y-70007876D01*
X206520536Y-70186555D01*
X206209550Y-70412858D01*
X205864510Y-70488454D01*
X205522905Y-70414711D01*
X205222227Y-70192998D01*
X205175323Y-70137453D01*
X205049773Y-69867288D01*
X205004589Y-69528322D01*
X205046408Y-69204192D01*
X205046408Y-69204192D01*
G37*
X205046408Y-69204192D02*
X205092312Y-69091101D01*
X205245731Y-68952236D01*
X205442760Y-68946138D01*
X205592841Y-69048921D01*
X205638324Y-69213111D01*
X205578388Y-69391323D01*
X205446864Y-69507728D01*
X205382687Y-69520000D01*
X205274595Y-69571940D01*
X205274679Y-69690908D01*
X205374000Y-69821629D01*
X205438343Y-69864203D01*
X205678021Y-69917611D01*
X205967125Y-69887820D01*
X206214634Y-69786226D01*
X206245430Y-69763130D01*
X206350558Y-69598524D01*
X206296337Y-69404215D01*
X206132931Y-69217426D01*
X205987085Y-69048418D01*
X205982589Y-68934431D01*
X205996841Y-68917292D01*
X206135500Y-68884755D01*
X206330627Y-68954327D01*
X206526055Y-69101680D01*
X206589473Y-69173997D01*
X206681740Y-69409499D01*
X206692192Y-69713154D01*
X206626079Y-70007876D01*
X206520536Y-70186555D01*
X206209550Y-70412858D01*
X205864510Y-70488454D01*
X205522905Y-70414711D01*
X205222227Y-70192998D01*
X205175323Y-70137453D01*
X205049773Y-69867288D01*
X205004589Y-69528322D01*
X205046408Y-69204192D01*
G36*
X204286831Y-68049891D02*
X204438516Y-68003022D01*
X204660089Y-67996000D01*
X204907070Y-67991672D01*
X205021638Y-67962281D01*
X205040710Y-67883213D01*
X205010513Y-67762386D01*
X204989847Y-67452684D01*
X205100001Y-67194949D01*
X205248324Y-67070202D01*
X205413109Y-67026091D01*
X205690204Y-66993952D01*
X206022680Y-66980130D01*
X206057433Y-66980000D01*
X206698000Y-66980000D01*
X206698000Y-67572667D01*
X206020666Y-67572667D01*
X205706131Y-67581615D01*
X205469271Y-67605395D01*
X205350141Y-67639409D01*
X205343333Y-67650409D01*
X205366496Y-67819654D01*
X205456699Y-67923737D01*
X205645011Y-67977393D01*
X205962504Y-67995357D01*
X206072058Y-67996000D01*
X206698000Y-67996000D01*
X206698000Y-68588667D01*
X205522541Y-68588667D01*
X205055770Y-68587614D01*
X204730934Y-68581617D01*
X204520637Y-68566422D01*
X204397481Y-68537773D01*
X204334070Y-68491415D01*
X204303006Y-68423093D01*
X204296030Y-68398167D01*
X204249465Y-68170416D01*
X204286831Y-68049891D01*
X204286831Y-68049891D01*
G37*
X204286831Y-68049891D02*
X204438516Y-68003022D01*
X204660089Y-67996000D01*
X204907070Y-67991672D01*
X205021638Y-67962281D01*
X205040710Y-67883213D01*
X205010513Y-67762386D01*
X204989847Y-67452684D01*
X205100001Y-67194949D01*
X205248324Y-67070202D01*
X205413109Y-67026091D01*
X205690204Y-66993952D01*
X206022680Y-66980130D01*
X206057433Y-66980000D01*
X206698000Y-66980000D01*
X206698000Y-67572667D01*
X206020666Y-67572667D01*
X205706131Y-67581615D01*
X205469271Y-67605395D01*
X205350141Y-67639409D01*
X205343333Y-67650409D01*
X205366496Y-67819654D01*
X205456699Y-67923737D01*
X205645011Y-67977393D01*
X205962504Y-67995357D01*
X206072058Y-67996000D01*
X206698000Y-67996000D01*
X206698000Y-68588667D01*
X205522541Y-68588667D01*
X205055770Y-68587614D01*
X204730934Y-68581617D01*
X204520637Y-68566422D01*
X204397481Y-68537773D01*
X204334070Y-68491415D01*
X204303006Y-68423093D01*
X204296030Y-68398167D01*
X204249465Y-68170416D01*
X204286831Y-68049891D01*
G36*
X204408585Y-81313096D02*
X204438920Y-81087625D01*
X204464916Y-81014291D01*
X204560166Y-80836915D01*
X204655416Y-81014892D01*
X204722598Y-81161764D01*
X204733627Y-81219601D01*
X204722167Y-81310721D01*
X204707066Y-81528349D01*
X204691176Y-81829782D01*
X204687628Y-81908334D01*
X204662564Y-82267951D01*
X204623980Y-82473199D01*
X204568822Y-82538719D01*
X204556500Y-82536674D01*
X204496569Y-82438662D01*
X204448933Y-82219438D01*
X204416471Y-81926862D01*
X204402062Y-81608795D01*
X204408585Y-81313096D01*
X204408585Y-81313096D01*
G37*
X204408585Y-81313096D02*
X204438920Y-81087625D01*
X204464916Y-81014291D01*
X204560166Y-80836915D01*
X204655416Y-81014892D01*
X204722598Y-81161764D01*
X204733627Y-81219601D01*
X204722167Y-81310721D01*
X204707066Y-81528349D01*
X204691176Y-81829782D01*
X204687628Y-81908334D01*
X204662564Y-82267951D01*
X204623980Y-82473199D01*
X204568822Y-82538719D01*
X204556500Y-82536674D01*
X204496569Y-82438662D01*
X204448933Y-82219438D01*
X204416471Y-81926862D01*
X204402062Y-81608795D01*
X204408585Y-81313096D01*
G36*
X201224149Y-79401246D02*
X201331603Y-78987666D01*
X201534172Y-78605055D01*
X201797518Y-78313319D01*
X201882288Y-78253064D01*
X202029050Y-78183683D01*
X202114488Y-78229239D01*
X202147086Y-78281353D01*
X202266583Y-78380959D01*
X202450306Y-78368212D01*
X202673560Y-78312178D01*
X202449925Y-78488089D01*
X202256019Y-78610358D01*
X202094927Y-78663902D01*
X202090234Y-78664000D01*
X201967132Y-78731963D01*
X201819521Y-78896751D01*
X201689984Y-79099712D01*
X201621102Y-79282198D01*
X201618316Y-79314001D01*
X201692147Y-79379717D01*
X201872000Y-79381524D01*
X202062369Y-79383897D01*
X202125590Y-79464613D01*
X202126000Y-79476294D01*
X202193558Y-79600584D01*
X202358389Y-79734634D01*
X202380132Y-79747438D01*
X202539865Y-79870280D01*
X202598245Y-79982305D01*
X202595496Y-79994789D01*
X202604826Y-80118488D01*
X202628825Y-80142469D01*
X202712031Y-80117236D01*
X202784546Y-79985741D01*
X202816405Y-79809956D01*
X202813805Y-79759920D01*
X202834938Y-79600089D01*
X202906876Y-79370674D01*
X202928929Y-79315420D01*
X203070355Y-79087329D01*
X203256692Y-79004433D01*
X203509541Y-79062902D01*
X203720080Y-79175074D01*
X204001828Y-79346848D01*
X203943574Y-79153591D01*
X203848294Y-78968603D01*
X203684640Y-78751017D01*
X203637853Y-78699407D01*
X203468471Y-78470536D01*
X203443909Y-78299040D01*
X203444584Y-78297240D01*
X203508401Y-78185092D01*
X203596020Y-78179372D01*
X203738393Y-78289645D01*
X203877912Y-78431167D01*
X204216208Y-78887671D01*
X204387718Y-79371138D01*
X204393583Y-79886773D01*
X204288501Y-80301861D01*
X204048823Y-80744871D01*
X203681012Y-81079865D01*
X203438333Y-81213310D01*
X202969792Y-81347783D01*
X202786371Y-81340992D01*
X202786371Y-80693426D01*
X203167111Y-80625411D01*
X203514453Y-80436707D01*
X203789581Y-80160956D01*
X203953678Y-79831798D01*
X203981982Y-79657220D01*
X203955438Y-79555793D01*
X203833017Y-79546509D01*
X203755833Y-79562499D01*
X203512594Y-79663954D01*
X203338767Y-79784649D01*
X203180865Y-79887792D01*
X203067552Y-79897983D01*
X202993246Y-79935713D01*
X202913632Y-80102747D01*
X202889442Y-80182642D01*
X202797731Y-80417930D01*
X202682831Y-80582880D01*
X202652658Y-80605956D01*
X202582768Y-80663217D01*
X202650704Y-80688423D01*
X202786371Y-80693426D01*
X202786371Y-81340992D01*
X202515027Y-81330944D01*
X202168333Y-81206625D01*
X202168333Y-80526667D01*
X202210666Y-80484333D01*
X202168333Y-80442000D01*
X202126000Y-80484333D01*
X202168333Y-80526667D01*
X202168333Y-81206625D01*
X202095827Y-81180625D01*
X201900222Y-81036851D01*
X201900222Y-79821111D01*
X201950556Y-79809489D01*
X201956666Y-79764667D01*
X201925688Y-79694977D01*
X201900222Y-79708222D01*
X201890089Y-79808702D01*
X201900222Y-79821111D01*
X201900222Y-81036851D01*
X201829666Y-80984990D01*
X201829666Y-80188000D01*
X201872000Y-80145667D01*
X201829666Y-80103333D01*
X201787333Y-80145667D01*
X201829666Y-80188000D01*
X201829666Y-80984990D01*
X201769754Y-80940954D01*
X201769754Y-80001769D01*
X201784740Y-79976333D01*
X201742584Y-79837194D01*
X201702666Y-79764667D01*
X201635579Y-79696898D01*
X201620592Y-79722333D01*
X201662749Y-79861473D01*
X201702666Y-79934000D01*
X201769754Y-80001769D01*
X201769754Y-80940954D01*
X201733981Y-80914659D01*
X201451279Y-80550877D01*
X201269510Y-80107111D01*
X201210462Y-79601193D01*
X201224149Y-79401246D01*
X201224149Y-79401246D01*
G37*
X201224149Y-79401246D02*
X201331603Y-78987666D01*
X201534172Y-78605055D01*
X201797518Y-78313319D01*
X201882288Y-78253064D01*
X202029050Y-78183683D01*
X202114488Y-78229239D01*
X202147086Y-78281353D01*
X202266583Y-78380959D01*
X202450306Y-78368212D01*
X202673560Y-78312178D01*
X202449925Y-78488089D01*
X202256019Y-78610358D01*
X202094927Y-78663902D01*
X202090234Y-78664000D01*
X201967132Y-78731963D01*
X201819521Y-78896751D01*
X201689984Y-79099712D01*
X201621102Y-79282198D01*
X201618316Y-79314001D01*
X201692147Y-79379717D01*
X201872000Y-79381524D01*
X202062369Y-79383897D01*
X202125590Y-79464613D01*
X202126000Y-79476294D01*
X202193558Y-79600584D01*
X202358389Y-79734634D01*
X202380132Y-79747438D01*
X202539865Y-79870280D01*
X202598245Y-79982305D01*
X202595496Y-79994789D01*
X202604826Y-80118488D01*
X202628825Y-80142469D01*
X202712031Y-80117236D01*
X202784546Y-79985741D01*
X202816405Y-79809956D01*
X202813805Y-79759920D01*
X202834938Y-79600089D01*
X202906876Y-79370674D01*
X202928929Y-79315420D01*
X203070355Y-79087329D01*
X203256692Y-79004433D01*
X203509541Y-79062902D01*
X203720080Y-79175074D01*
X204001828Y-79346848D01*
X203943574Y-79153591D01*
X203848294Y-78968603D01*
X203684640Y-78751017D01*
X203637853Y-78699407D01*
X203468471Y-78470536D01*
X203443909Y-78299040D01*
X203444584Y-78297240D01*
X203508401Y-78185092D01*
X203596020Y-78179372D01*
X203738393Y-78289645D01*
X203877912Y-78431167D01*
X204216208Y-78887671D01*
X204387718Y-79371138D01*
X204393583Y-79886773D01*
X204288501Y-80301861D01*
X204048823Y-80744871D01*
X203681012Y-81079865D01*
X203438333Y-81213310D01*
X202969792Y-81347783D01*
X202786371Y-81340992D01*
X202786371Y-80693426D01*
X203167111Y-80625411D01*
X203514453Y-80436707D01*
X203789581Y-80160956D01*
X203953678Y-79831798D01*
X203981982Y-79657220D01*
X203955438Y-79555793D01*
X203833017Y-79546509D01*
X203755833Y-79562499D01*
X203512594Y-79663954D01*
X203338767Y-79784649D01*
X203180865Y-79887792D01*
X203067552Y-79897983D01*
X202993246Y-79935713D01*
X202913632Y-80102747D01*
X202889442Y-80182642D01*
X202797731Y-80417930D01*
X202682831Y-80582880D01*
X202652658Y-80605956D01*
X202582768Y-80663217D01*
X202650704Y-80688423D01*
X202786371Y-80693426D01*
X202786371Y-81340992D01*
X202515027Y-81330944D01*
X202168333Y-81206625D01*
X202168333Y-80526667D01*
X202210666Y-80484333D01*
X202168333Y-80442000D01*
X202126000Y-80484333D01*
X202168333Y-80526667D01*
X202168333Y-81206625D01*
X202095827Y-81180625D01*
X201900222Y-81036851D01*
X201900222Y-79821111D01*
X201950556Y-79809489D01*
X201956666Y-79764667D01*
X201925688Y-79694977D01*
X201900222Y-79708222D01*
X201890089Y-79808702D01*
X201900222Y-79821111D01*
X201900222Y-81036851D01*
X201829666Y-80984990D01*
X201829666Y-80188000D01*
X201872000Y-80145667D01*
X201829666Y-80103333D01*
X201787333Y-80145667D01*
X201829666Y-80188000D01*
X201829666Y-80984990D01*
X201769754Y-80940954D01*
X201769754Y-80001769D01*
X201784740Y-79976333D01*
X201742584Y-79837194D01*
X201702666Y-79764667D01*
X201635579Y-79696898D01*
X201620592Y-79722333D01*
X201662749Y-79861473D01*
X201702666Y-79934000D01*
X201769754Y-80001769D01*
X201769754Y-80940954D01*
X201733981Y-80914659D01*
X201451279Y-80550877D01*
X201269510Y-80107111D01*
X201210462Y-79601193D01*
X201224149Y-79401246D01*
G36*
X203841017Y-81694960D02*
X203894336Y-81476603D01*
X203972174Y-81388386D01*
X204066120Y-81449267D01*
X204072036Y-81458000D01*
X204122999Y-81616696D01*
X204149931Y-81860881D01*
X204152757Y-82130399D01*
X204131404Y-82365094D01*
X204085798Y-82504812D01*
X204073333Y-82516333D01*
X203938427Y-82534566D01*
X203854198Y-82392022D01*
X203821134Y-82089649D01*
X203820629Y-82024503D01*
X203841017Y-81694960D01*
X203841017Y-81694960D01*
G37*
X203841017Y-81694960D02*
X203894336Y-81476603D01*
X203972174Y-81388386D01*
X204066120Y-81449267D01*
X204072036Y-81458000D01*
X204122999Y-81616696D01*
X204149931Y-81860881D01*
X204152757Y-82130399D01*
X204131404Y-82365094D01*
X204085798Y-82504812D01*
X204073333Y-82516333D01*
X203938427Y-82534566D01*
X203854198Y-82392022D01*
X203821134Y-82089649D01*
X203820629Y-82024503D01*
X203841017Y-81694960D01*
G36*
X202308228Y-76692483D02*
X202338543Y-76630306D01*
X202541325Y-76364839D01*
X202822532Y-76232620D01*
X203075261Y-76208667D01*
X203437991Y-76286724D01*
X203729068Y-76515101D01*
X203862150Y-76717602D01*
X203968631Y-76992746D01*
X203964936Y-77244141D01*
X203849192Y-77544431D01*
X203840368Y-77562156D01*
X203606770Y-77874548D01*
X203311132Y-78040648D01*
X202983583Y-78055488D01*
X202978700Y-78053392D01*
X202978700Y-77445896D01*
X203245623Y-77423886D01*
X203477284Y-77339626D01*
X203536097Y-77298464D01*
X203637077Y-77136263D01*
X203626105Y-76961716D01*
X203516075Y-76852725D01*
X203240259Y-76800407D01*
X202949405Y-76826781D01*
X202691639Y-76916443D01*
X202515090Y-77053989D01*
X202464666Y-77189230D01*
X202538391Y-77323488D01*
X202726346Y-77410736D01*
X202978700Y-77445896D01*
X202978700Y-78053392D01*
X202654250Y-77914098D01*
X202498533Y-77783467D01*
X202269890Y-77452539D01*
X202206100Y-77086312D01*
X202308228Y-76692483D01*
X202308228Y-76692483D01*
G37*
X202308228Y-76692483D02*
X202338543Y-76630306D01*
X202541325Y-76364839D01*
X202822532Y-76232620D01*
X203075261Y-76208667D01*
X203437991Y-76286724D01*
X203729068Y-76515101D01*
X203862150Y-76717602D01*
X203968631Y-76992746D01*
X203964936Y-77244141D01*
X203849192Y-77544431D01*
X203840368Y-77562156D01*
X203606770Y-77874548D01*
X203311132Y-78040648D01*
X202983583Y-78055488D01*
X202978700Y-78053392D01*
X202978700Y-77445896D01*
X203245623Y-77423886D01*
X203477284Y-77339626D01*
X203536097Y-77298464D01*
X203637077Y-77136263D01*
X203626105Y-76961716D01*
X203516075Y-76852725D01*
X203240259Y-76800407D01*
X202949405Y-76826781D01*
X202691639Y-76916443D01*
X202515090Y-77053989D01*
X202464666Y-77189230D01*
X202538391Y-77323488D01*
X202726346Y-77410736D01*
X202978700Y-77445896D01*
X202978700Y-78053392D01*
X202654250Y-77914098D01*
X202498533Y-77783467D01*
X202269890Y-77452539D01*
X202206100Y-77086312D01*
X202308228Y-76692483D01*
G36*
X202256661Y-75079424D02*
X202365500Y-74909456D01*
X202505157Y-74801711D01*
X202577166Y-74769333D01*
X202630285Y-74835036D01*
X202615777Y-74990828D01*
X202540521Y-75174738D01*
X202530286Y-75191702D01*
X202470615Y-75353049D01*
X202523082Y-75454283D01*
X202606879Y-75475187D01*
X202719536Y-75373278D01*
X202851119Y-75181230D01*
X203001725Y-74956761D01*
X203129142Y-74794005D01*
X203175823Y-74749463D01*
X203372474Y-74690370D01*
X203608053Y-74704035D01*
X203791700Y-74782665D01*
X203813063Y-74804112D01*
X203900349Y-74994241D01*
X203952119Y-75261984D01*
X203955100Y-75517090D01*
X203932482Y-75616000D01*
X203834962Y-75785101D01*
X203700207Y-75945364D01*
X203582168Y-76035130D01*
X203562085Y-76039333D01*
X203481452Y-75971873D01*
X203452579Y-75826273D01*
X203482474Y-75687706D01*
X203529572Y-75644096D01*
X203622165Y-75542341D01*
X203648608Y-75383589D01*
X203609706Y-75242632D01*
X203524720Y-75192667D01*
X203413181Y-75262160D01*
X203279437Y-75437179D01*
X203228110Y-75528503D01*
X203015916Y-75849821D01*
X202793320Y-76007407D01*
X202565241Y-75999278D01*
X202380000Y-75870000D01*
X202250498Y-75642854D01*
X202209024Y-75355463D01*
X202256661Y-75079424D01*
X202256661Y-75079424D01*
G37*
X202256661Y-75079424D02*
X202365500Y-74909456D01*
X202505157Y-74801711D01*
X202577166Y-74769333D01*
X202630285Y-74835036D01*
X202615777Y-74990828D01*
X202540521Y-75174738D01*
X202530286Y-75191702D01*
X202470615Y-75353049D01*
X202523082Y-75454283D01*
X202606879Y-75475187D01*
X202719536Y-75373278D01*
X202851119Y-75181230D01*
X203001725Y-74956761D01*
X203129142Y-74794005D01*
X203175823Y-74749463D01*
X203372474Y-74690370D01*
X203608053Y-74704035D01*
X203791700Y-74782665D01*
X203813063Y-74804112D01*
X203900349Y-74994241D01*
X203952119Y-75261984D01*
X203955100Y-75517090D01*
X203932482Y-75616000D01*
X203834962Y-75785101D01*
X203700207Y-75945364D01*
X203582168Y-76035130D01*
X203562085Y-76039333D01*
X203481452Y-75971873D01*
X203452579Y-75826273D01*
X203482474Y-75687706D01*
X203529572Y-75644096D01*
X203622165Y-75542341D01*
X203648608Y-75383589D01*
X203609706Y-75242632D01*
X203524720Y-75192667D01*
X203413181Y-75262160D01*
X203279437Y-75437179D01*
X203228110Y-75528503D01*
X203015916Y-75849821D01*
X202793320Y-76007407D01*
X202565241Y-75999278D01*
X202380000Y-75870000D01*
X202250498Y-75642854D01*
X202209024Y-75355463D01*
X202256661Y-75079424D01*
G36*
X202298312Y-69260434D02*
X202436182Y-69136485D01*
X202622543Y-69101089D01*
X202784449Y-69158291D01*
X202836608Y-69230592D01*
X202881762Y-69427596D01*
X202803674Y-69550505D01*
X202676333Y-69620072D01*
X202520075Y-69729064D01*
X202464666Y-69832019D01*
X202537695Y-69962218D01*
X202723043Y-70041743D01*
X202970100Y-70066053D01*
X203228256Y-70030607D01*
X203446903Y-69930862D01*
X203459500Y-69921292D01*
X203559214Y-69754328D01*
X203513594Y-69555416D01*
X203340757Y-69370531D01*
X203199215Y-69216968D01*
X203188278Y-69085117D01*
X203306470Y-69015130D01*
X203353942Y-69012000D01*
X203538654Y-69082077D01*
X203733003Y-69256061D01*
X203886440Y-69479578D01*
X203944261Y-69647000D01*
X203945070Y-69908628D01*
X203898084Y-70112667D01*
X203702817Y-70397928D01*
X203423376Y-70568273D01*
X203100586Y-70623016D01*
X202775271Y-70561472D01*
X202488257Y-70382956D01*
X202305242Y-70139400D01*
X202224603Y-69851889D01*
X202223626Y-69523845D01*
X202298312Y-69260434D01*
X202298312Y-69260434D01*
G37*
X202298312Y-69260434D02*
X202436182Y-69136485D01*
X202622543Y-69101089D01*
X202784449Y-69158291D01*
X202836608Y-69230592D01*
X202881762Y-69427596D01*
X202803674Y-69550505D01*
X202676333Y-69620072D01*
X202520075Y-69729064D01*
X202464666Y-69832019D01*
X202537695Y-69962218D01*
X202723043Y-70041743D01*
X202970100Y-70066053D01*
X203228256Y-70030607D01*
X203446903Y-69930862D01*
X203459500Y-69921292D01*
X203559214Y-69754328D01*
X203513594Y-69555416D01*
X203340757Y-69370531D01*
X203199215Y-69216968D01*
X203188278Y-69085117D01*
X203306470Y-69015130D01*
X203353942Y-69012000D01*
X203538654Y-69082077D01*
X203733003Y-69256061D01*
X203886440Y-69479578D01*
X203944261Y-69647000D01*
X203945070Y-69908628D01*
X203898084Y-70112667D01*
X203702817Y-70397928D01*
X203423376Y-70568273D01*
X203100586Y-70623016D01*
X202775271Y-70561472D01*
X202488257Y-70382956D01*
X202305242Y-70139400D01*
X202224603Y-69851889D01*
X202223626Y-69523845D01*
X202298312Y-69260434D01*
G36*
X202249480Y-73732167D02*
X202267515Y-73398782D01*
X202281646Y-73128940D01*
X202289478Y-72968631D01*
X202290235Y-72949000D01*
X202280762Y-72816989D01*
X202254158Y-72591890D01*
X202243943Y-72516724D01*
X202226783Y-72278440D01*
X202279069Y-72127293D01*
X202426024Y-71987557D01*
X202586616Y-71887659D01*
X202783785Y-71831697D01*
X203069422Y-71808646D01*
X203280418Y-71806000D01*
X203904000Y-71806000D01*
X203904000Y-72398667D01*
X203273996Y-72398667D01*
X202906864Y-72408653D01*
X202684988Y-72445258D01*
X202585115Y-72518449D01*
X202583989Y-72638194D01*
X202600450Y-72687360D01*
X202665213Y-72759985D01*
X202812864Y-72801915D01*
X203077299Y-72819886D01*
X203278058Y-72822000D01*
X203904000Y-72822000D01*
X203904000Y-73414667D01*
X203273996Y-73414667D01*
X202906864Y-73424653D01*
X202684988Y-73461258D01*
X202585115Y-73534449D01*
X202583989Y-73654194D01*
X202600450Y-73703360D01*
X202665213Y-73775985D01*
X202812864Y-73817915D01*
X203077299Y-73835886D01*
X203278058Y-73838000D01*
X203904000Y-73838000D01*
X203904000Y-74430667D01*
X202211163Y-74430667D01*
X202249480Y-73732167D01*
X202249480Y-73732167D01*
G37*
X202249480Y-73732167D02*
X202267515Y-73398782D01*
X202281646Y-73128940D01*
X202289478Y-72968631D01*
X202290235Y-72949000D01*
X202280762Y-72816989D01*
X202254158Y-72591890D01*
X202243943Y-72516724D01*
X202226783Y-72278440D01*
X202279069Y-72127293D01*
X202426024Y-71987557D01*
X202586616Y-71887659D01*
X202783785Y-71831697D01*
X203069422Y-71808646D01*
X203280418Y-71806000D01*
X203904000Y-71806000D01*
X203904000Y-72398667D01*
X203273996Y-72398667D01*
X202906864Y-72408653D01*
X202684988Y-72445258D01*
X202585115Y-72518449D01*
X202583989Y-72638194D01*
X202600450Y-72687360D01*
X202665213Y-72759985D01*
X202812864Y-72801915D01*
X203077299Y-72819886D01*
X203278058Y-72822000D01*
X203904000Y-72822000D01*
X203904000Y-73414667D01*
X203273996Y-73414667D01*
X202906864Y-73424653D01*
X202684988Y-73461258D01*
X202585115Y-73534449D01*
X202583989Y-73654194D01*
X202600450Y-73703360D01*
X202665213Y-73775985D01*
X202812864Y-73817915D01*
X203077299Y-73835886D01*
X203278058Y-73838000D01*
X203904000Y-73838000D01*
X203904000Y-74430667D01*
X202211163Y-74430667D01*
X202249480Y-73732167D01*
G36*
X202226846Y-70976898D02*
X202308393Y-70911971D01*
X202491956Y-70886200D01*
X202803979Y-70886432D01*
X203036166Y-70892768D01*
X203861666Y-70917000D01*
X203888197Y-71192167D01*
X203914728Y-71467333D01*
X203114905Y-71467333D01*
X202741678Y-71464884D01*
X202503911Y-71452484D01*
X202367750Y-71422551D01*
X202299339Y-71367508D01*
X202264822Y-71279773D01*
X202264030Y-71276833D01*
X202220873Y-71094135D01*
X202226846Y-70976898D01*
X202226846Y-70976898D01*
G37*
X202226846Y-70976898D02*
X202308393Y-70911971D01*
X202491956Y-70886200D01*
X202803979Y-70886432D01*
X203036166Y-70892768D01*
X203861666Y-70917000D01*
X203888197Y-71192167D01*
X203914728Y-71467333D01*
X203114905Y-71467333D01*
X202741678Y-71464884D01*
X202503911Y-71452484D01*
X202367750Y-71422551D01*
X202299339Y-71367508D01*
X202264822Y-71279773D01*
X202264030Y-71276833D01*
X202220873Y-71094135D01*
X202226846Y-70976898D01*
G36*
X203316036Y-81595734D02*
X203402079Y-81542667D01*
X203506255Y-81619886D01*
X203571169Y-81826777D01*
X203586606Y-82126186D01*
X203582494Y-82198833D01*
X203535788Y-82459253D01*
X203460610Y-82560334D01*
X203377911Y-82504697D01*
X203308643Y-82294962D01*
X203288653Y-82162070D01*
X203270693Y-81801014D01*
X203316036Y-81595734D01*
X203316036Y-81595734D01*
G37*
X203316036Y-81595734D02*
X203402079Y-81542667D01*
X203506255Y-81619886D01*
X203571169Y-81826777D01*
X203586606Y-82126186D01*
X203582494Y-82198833D01*
X203535788Y-82459253D01*
X203460610Y-82560334D01*
X203377911Y-82504697D01*
X203308643Y-82294962D01*
X203288653Y-82162070D01*
X203270693Y-81801014D01*
X203316036Y-81595734D01*
G36*
X202723249Y-81882476D02*
X202739948Y-81844908D01*
X202812460Y-81731215D01*
X202879271Y-81758933D01*
X202941478Y-81839924D01*
X203027383Y-81981972D01*
X203044647Y-82045682D01*
X203023834Y-82156250D01*
X202996690Y-82325833D01*
X202935930Y-82494949D01*
X202849652Y-82558667D01*
X202760346Y-82485163D01*
X202703108Y-82306306D01*
X202687541Y-82084582D01*
X202723249Y-81882476D01*
X202723249Y-81882476D01*
G37*
X202723249Y-81882476D02*
X202739948Y-81844908D01*
X202812460Y-81731215D01*
X202879271Y-81758933D01*
X202941478Y-81839924D01*
X203027383Y-81981972D01*
X203044647Y-82045682D01*
X203023834Y-82156250D01*
X202996690Y-82325833D01*
X202935930Y-82494949D01*
X202849652Y-82558667D01*
X202760346Y-82485163D01*
X202703108Y-82306306D01*
X202687541Y-82084582D01*
X202723249Y-81882476D01*
G36*
X202114927Y-81883758D02*
X202163797Y-81673035D01*
X202244258Y-81563718D01*
X202342065Y-81584789D01*
X202377094Y-81627333D01*
X202444212Y-81779833D01*
X202449137Y-81839000D01*
X202432368Y-81973645D01*
X202407741Y-82196120D01*
X202402989Y-82241167D01*
X202349146Y-82480487D01*
X202269691Y-82563391D01*
X202187483Y-82495708D01*
X202125379Y-82283271D01*
X202111892Y-82166907D01*
X202114927Y-81883758D01*
X202114927Y-81883758D01*
G37*
X202114927Y-81883758D02*
X202163797Y-81673035D01*
X202244258Y-81563718D01*
X202342065Y-81584789D01*
X202377094Y-81627333D01*
X202444212Y-81779833D01*
X202449137Y-81839000D01*
X202432368Y-81973645D01*
X202407741Y-82196120D01*
X202402989Y-82241167D01*
X202349146Y-82480487D01*
X202269691Y-82563391D01*
X202187483Y-82495708D01*
X202125379Y-82283271D01*
X202111892Y-82166907D01*
X202114927Y-81883758D01*
G36*
X201502677Y-71048246D02*
X201536705Y-70997604D01*
X201672991Y-70886758D01*
X201810826Y-70922492D01*
X201908285Y-71007714D01*
X202017613Y-71146405D01*
X202013971Y-71283353D01*
X201985260Y-71361500D01*
X201876775Y-71444189D01*
X201743649Y-71467333D01*
X201564428Y-71399126D01*
X201474569Y-71237788D01*
X201502677Y-71048246D01*
X201502677Y-71048246D01*
G37*
X201502677Y-71048246D02*
X201536705Y-70997604D01*
X201672991Y-70886758D01*
X201810826Y-70922492D01*
X201908285Y-71007714D01*
X202017613Y-71146405D01*
X202013971Y-71283353D01*
X201985260Y-71361500D01*
X201876775Y-71444189D01*
X201743649Y-71467333D01*
X201564428Y-71399126D01*
X201474569Y-71237788D01*
X201502677Y-71048246D01*
G36*
X201555017Y-81694960D02*
X201608336Y-81476603D01*
X201686174Y-81388386D01*
X201780120Y-81449267D01*
X201786036Y-81458000D01*
X201836999Y-81616696D01*
X201863931Y-81860881D01*
X201866757Y-82130399D01*
X201845404Y-82365094D01*
X201799798Y-82504812D01*
X201787333Y-82516333D01*
X201652427Y-82534566D01*
X201568198Y-82392022D01*
X201535134Y-82089649D01*
X201534629Y-82024503D01*
X201555017Y-81694960D01*
X201555017Y-81694960D01*
G37*
X201555017Y-81694960D02*
X201608336Y-81476603D01*
X201686174Y-81388386D01*
X201780120Y-81449267D01*
X201786036Y-81458000D01*
X201836999Y-81616696D01*
X201863931Y-81860881D01*
X201866757Y-82130399D01*
X201845404Y-82365094D01*
X201799798Y-82504812D01*
X201787333Y-82516333D01*
X201652427Y-82534566D01*
X201568198Y-82392022D01*
X201535134Y-82089649D01*
X201534629Y-82024503D01*
X201555017Y-81694960D01*
G36*
X200991077Y-81117329D02*
X201048863Y-81003730D01*
X201136975Y-80904638D01*
X201195504Y-80945095D01*
X201241231Y-81048493D01*
X201275452Y-81229286D01*
X201289528Y-81518003D01*
X201280668Y-81854125D01*
X201279333Y-81874674D01*
X201241059Y-82235517D01*
X201185879Y-82463758D01*
X201131166Y-82537897D01*
X201072219Y-82508007D01*
X201038397Y-82356233D01*
X201025693Y-82061446D01*
X201025333Y-81979980D01*
X201019304Y-81666337D01*
X201003494Y-81412285D01*
X200981314Y-81272477D01*
X200981131Y-81271995D01*
X200991077Y-81117329D01*
X200991077Y-81117329D01*
G37*
X200991077Y-81117329D02*
X201048863Y-81003730D01*
X201136975Y-80904638D01*
X201195504Y-80945095D01*
X201241231Y-81048493D01*
X201275452Y-81229286D01*
X201289528Y-81518003D01*
X201280668Y-81854125D01*
X201279333Y-81874674D01*
X201241059Y-82235517D01*
X201185879Y-82463758D01*
X201131166Y-82537897D01*
X201072219Y-82508007D01*
X201038397Y-82356233D01*
X201025693Y-82061446D01*
X201025333Y-81979980D01*
X201019304Y-81666337D01*
X201003494Y-81412285D01*
X200981314Y-81272477D01*
X200981131Y-81271995D01*
X200991077Y-81117329D01*
G36*
X160237281Y-110375966D02*
X160270794Y-110387918D01*
X160374604Y-110460934D01*
X160438852Y-110566097D01*
X160461319Y-110686572D01*
X160439787Y-110805524D01*
X160372038Y-110906116D01*
X160342255Y-110930276D01*
X160234877Y-110972703D01*
X160108068Y-110977071D01*
X159988823Y-110945319D01*
X159921681Y-110900068D01*
X159864612Y-110803596D01*
X159842239Y-110679719D01*
X159856499Y-110555429D01*
X159891473Y-110479494D01*
X159983518Y-110399375D01*
X160105481Y-110363250D01*
X160237281Y-110375966D01*
X160237281Y-110375966D01*
G37*
X160237281Y-110375966D02*
X160270794Y-110387918D01*
X160374604Y-110460934D01*
X160438852Y-110566097D01*
X160461319Y-110686572D01*
X160439787Y-110805524D01*
X160372038Y-110906116D01*
X160342255Y-110930276D01*
X160234877Y-110972703D01*
X160108068Y-110977071D01*
X159988823Y-110945319D01*
X159921681Y-110900068D01*
X159864612Y-110803596D01*
X159842239Y-110679719D01*
X159856499Y-110555429D01*
X159891473Y-110479494D01*
X159983518Y-110399375D01*
X160105481Y-110363250D01*
X160237281Y-110375966D01*
G36*
X161007733Y-110385512D02*
X161109520Y-110454621D01*
X161129526Y-110479494D01*
X161171953Y-110586872D01*
X161176321Y-110713681D01*
X161144569Y-110832926D01*
X161099318Y-110900068D01*
X161002846Y-110957137D01*
X160878969Y-110979511D01*
X160754679Y-110965250D01*
X160678744Y-110930276D01*
X160596646Y-110838509D01*
X160561432Y-110723314D01*
X160570886Y-110601526D01*
X160622788Y-110489982D01*
X160714920Y-110405516D01*
X160750205Y-110387918D01*
X160881268Y-110361662D01*
X161007733Y-110385512D01*
X161007733Y-110385512D01*
G37*
X161007733Y-110385512D02*
X161109520Y-110454621D01*
X161129526Y-110479494D01*
X161171953Y-110586872D01*
X161176321Y-110713681D01*
X161144569Y-110832926D01*
X161099318Y-110900068D01*
X161002846Y-110957137D01*
X160878969Y-110979511D01*
X160754679Y-110965250D01*
X160678744Y-110930276D01*
X160596646Y-110838509D01*
X160561432Y-110723314D01*
X160570886Y-110601526D01*
X160622788Y-110489982D01*
X160714920Y-110405516D01*
X160750205Y-110387918D01*
X160881268Y-110361662D01*
X161007733Y-110385512D01*
G36*
X161668457Y-110361481D02*
X161785014Y-110419170D01*
X161865777Y-110514817D01*
X161906062Y-110632356D01*
X161901184Y-110755722D01*
X161846460Y-110868848D01*
X161823795Y-110894295D01*
X161716832Y-110961423D01*
X161590672Y-110982459D01*
X161467235Y-110957050D01*
X161383473Y-110901359D01*
X161301583Y-110784313D01*
X161282575Y-110659119D01*
X161316165Y-110544269D01*
X161391161Y-110447545D01*
X161498359Y-110380679D01*
X161615222Y-110355361D01*
X161668457Y-110361481D01*
X161668457Y-110361481D01*
G37*
X161668457Y-110361481D02*
X161785014Y-110419170D01*
X161865777Y-110514817D01*
X161906062Y-110632356D01*
X161901184Y-110755722D01*
X161846460Y-110868848D01*
X161823795Y-110894295D01*
X161716832Y-110961423D01*
X161590672Y-110982459D01*
X161467235Y-110957050D01*
X161383473Y-110901359D01*
X161301583Y-110784313D01*
X161282575Y-110659119D01*
X161316165Y-110544269D01*
X161391161Y-110447545D01*
X161498359Y-110380679D01*
X161615222Y-110355361D01*
X161668457Y-110361481D01*
G36*
X162406544Y-110372007D02*
X162521376Y-110438657D01*
X162546522Y-110464150D01*
X162622308Y-110587534D01*
X162635340Y-110714580D01*
X162585509Y-110840314D01*
X162555552Y-110880313D01*
X162487211Y-110946241D01*
X162411990Y-110973786D01*
X162337584Y-110978000D01*
X162194202Y-110954376D01*
X162119337Y-110913124D01*
X162041603Y-110815735D01*
X162011913Y-110696443D01*
X162029194Y-110573590D01*
X162092372Y-110465520D01*
X162148326Y-110417685D01*
X162278595Y-110364596D01*
X162406544Y-110372007D01*
X162406544Y-110372007D01*
G37*
X162406544Y-110372007D02*
X162521376Y-110438657D01*
X162546522Y-110464150D01*
X162622308Y-110587534D01*
X162635340Y-110714580D01*
X162585509Y-110840314D01*
X162555552Y-110880313D01*
X162487211Y-110946241D01*
X162411990Y-110973786D01*
X162337584Y-110978000D01*
X162194202Y-110954376D01*
X162119337Y-110913124D01*
X162041603Y-110815735D01*
X162011913Y-110696443D01*
X162029194Y-110573590D01*
X162092372Y-110465520D01*
X162148326Y-110417685D01*
X162278595Y-110364596D01*
X162406544Y-110372007D01*
G36*
X163194356Y-110396207D02*
X163288973Y-110476203D01*
X163356405Y-110598971D01*
X163362165Y-110727786D01*
X163306322Y-110853852D01*
X163285802Y-110880313D01*
X163218615Y-110945530D01*
X163145055Y-110973296D01*
X163065323Y-110978000D01*
X162936342Y-110959963D01*
X162844823Y-110906562D01*
X162764857Y-110800658D01*
X162737979Y-110679977D01*
X162761501Y-110560087D01*
X162832733Y-110456558D01*
X162933915Y-110390860D01*
X163070807Y-110362640D01*
X163194356Y-110396207D01*
X163194356Y-110396207D01*
G37*
X163194356Y-110396207D02*
X163288973Y-110476203D01*
X163356405Y-110598971D01*
X163362165Y-110727786D01*
X163306322Y-110853852D01*
X163285802Y-110880313D01*
X163218615Y-110945530D01*
X163145055Y-110973296D01*
X163065323Y-110978000D01*
X162936342Y-110959963D01*
X162844823Y-110906562D01*
X162764857Y-110800658D01*
X162737979Y-110679977D01*
X162761501Y-110560087D01*
X162832733Y-110456558D01*
X162933915Y-110390860D01*
X163070807Y-110362640D01*
X163194356Y-110396207D01*
G36*
X160280446Y-109665378D02*
X160381087Y-109730660D01*
X160444816Y-109844316D01*
X160446133Y-109848250D01*
X160460567Y-109982545D01*
X160420045Y-110105761D01*
X160331871Y-110201520D01*
X160274537Y-110233017D01*
X160190086Y-110266047D01*
X160133045Y-110274460D01*
X160072300Y-110258280D01*
X160012937Y-110233216D01*
X159915305Y-110169879D01*
X159861403Y-110077143D01*
X159843813Y-109941750D01*
X159843750Y-109930894D01*
X159868686Y-109795439D01*
X159941161Y-109701184D01*
X160057675Y-109651547D01*
X160136867Y-109644500D01*
X160280446Y-109665378D01*
X160280446Y-109665378D01*
G37*
X160280446Y-109665378D02*
X160381087Y-109730660D01*
X160444816Y-109844316D01*
X160446133Y-109848250D01*
X160460567Y-109982545D01*
X160420045Y-110105761D01*
X160331871Y-110201520D01*
X160274537Y-110233017D01*
X160190086Y-110266047D01*
X160133045Y-110274460D01*
X160072300Y-110258280D01*
X160012937Y-110233216D01*
X159915305Y-110169879D01*
X159861403Y-110077143D01*
X159843813Y-109941750D01*
X159843750Y-109930894D01*
X159868686Y-109795439D01*
X159941161Y-109701184D01*
X160057675Y-109651547D01*
X160136867Y-109644500D01*
X160280446Y-109665378D01*
G36*
X161014649Y-109671012D02*
X161114158Y-109745405D01*
X161168993Y-109859963D01*
X161177250Y-109936666D01*
X161161106Y-110073264D01*
X161107403Y-110167089D01*
X161008226Y-110231520D01*
X161001089Y-110234562D01*
X160918558Y-110266706D01*
X160861918Y-110274334D01*
X160799631Y-110257097D01*
X160739499Y-110231665D01*
X160635719Y-110154810D01*
X160573637Y-110042301D01*
X160560980Y-109912133D01*
X160574866Y-109848250D01*
X160638671Y-109732105D01*
X160739687Y-109665289D01*
X160878360Y-109644500D01*
X161014649Y-109671012D01*
X161014649Y-109671012D01*
G37*
X161014649Y-109671012D02*
X161114158Y-109745405D01*
X161168993Y-109859963D01*
X161177250Y-109936666D01*
X161161106Y-110073264D01*
X161107403Y-110167089D01*
X161008226Y-110231520D01*
X161001089Y-110234562D01*
X160918558Y-110266706D01*
X160861918Y-110274334D01*
X160799631Y-110257097D01*
X160739499Y-110231665D01*
X160635719Y-110154810D01*
X160573637Y-110042301D01*
X160560980Y-109912133D01*
X160574866Y-109848250D01*
X160638671Y-109732105D01*
X160739687Y-109665289D01*
X160878360Y-109644500D01*
X161014649Y-109671012D01*
G36*
X161737489Y-109671600D02*
X161839070Y-109746166D01*
X161897508Y-109858093D01*
X161907500Y-109937307D01*
X161882197Y-110081344D01*
X161808912Y-110188042D01*
X161710167Y-110245374D01*
X161635488Y-110269892D01*
X161585616Y-110274357D01*
X161529207Y-110257140D01*
X161472992Y-110233028D01*
X161361972Y-110153635D01*
X161299325Y-110040480D01*
X161291494Y-109907489D01*
X161301699Y-109862743D01*
X161363059Y-109740095D01*
X161460715Y-109668435D01*
X161599157Y-109644514D01*
X161603264Y-109644500D01*
X161737489Y-109671600D01*
X161737489Y-109671600D01*
G37*
X161737489Y-109671600D02*
X161839070Y-109746166D01*
X161897508Y-109858093D01*
X161907500Y-109937307D01*
X161882197Y-110081344D01*
X161808912Y-110188042D01*
X161710167Y-110245374D01*
X161635488Y-110269892D01*
X161585616Y-110274357D01*
X161529207Y-110257140D01*
X161472992Y-110233028D01*
X161361972Y-110153635D01*
X161299325Y-110040480D01*
X161291494Y-109907489D01*
X161301699Y-109862743D01*
X161363059Y-109740095D01*
X161460715Y-109668435D01*
X161599157Y-109644514D01*
X161603264Y-109644500D01*
X161737489Y-109671600D01*
G36*
X162468664Y-109671697D02*
X162561829Y-109743340D01*
X162620699Y-109844500D01*
X162639386Y-109960251D01*
X162612005Y-110075667D01*
X162550437Y-110160170D01*
X162428873Y-110242614D01*
X162304277Y-110263752D01*
X162225652Y-110244749D01*
X162102058Y-110166563D01*
X162028896Y-110059361D01*
X162010575Y-109933972D01*
X162047893Y-109808048D01*
X162117763Y-109711209D01*
X162211717Y-109659722D01*
X162346381Y-109644500D01*
X162347090Y-109644500D01*
X162468664Y-109671697D01*
X162468664Y-109671697D01*
G37*
X162468664Y-109671697D02*
X162561829Y-109743340D01*
X162620699Y-109844500D01*
X162639386Y-109960251D01*
X162612005Y-110075667D01*
X162550437Y-110160170D01*
X162428873Y-110242614D01*
X162304277Y-110263752D01*
X162225652Y-110244749D01*
X162102058Y-110166563D01*
X162028896Y-110059361D01*
X162010575Y-109933972D01*
X162047893Y-109808048D01*
X162117763Y-109711209D01*
X162211717Y-109659722D01*
X162346381Y-109644500D01*
X162347090Y-109644500D01*
X162468664Y-109671697D01*
G36*
X163164959Y-109653196D02*
X163234102Y-109688656D01*
X163285802Y-109742186D01*
X163350728Y-109860215D01*
X163361525Y-109981782D01*
X163325646Y-110094935D01*
X163250543Y-110187721D01*
X163143671Y-110248189D01*
X163012481Y-110264388D01*
X162964271Y-110257810D01*
X162898932Y-110224971D01*
X162825717Y-110161516D01*
X162810134Y-110144047D01*
X162754325Y-110063076D01*
X162738096Y-109983727D01*
X162743587Y-109915975D01*
X162787967Y-109781366D01*
X162877062Y-109691074D01*
X163007510Y-109647940D01*
X163065323Y-109644500D01*
X163164959Y-109653196D01*
X163164959Y-109653196D01*
G37*
X163164959Y-109653196D02*
X163234102Y-109688656D01*
X163285802Y-109742186D01*
X163350728Y-109860215D01*
X163361525Y-109981782D01*
X163325646Y-110094935D01*
X163250543Y-110187721D01*
X163143671Y-110248189D01*
X163012481Y-110264388D01*
X162964271Y-110257810D01*
X162898932Y-110224971D01*
X162825717Y-110161516D01*
X162810134Y-110144047D01*
X162754325Y-110063076D01*
X162738096Y-109983727D01*
X162743587Y-109915975D01*
X162787967Y-109781366D01*
X162877062Y-109691074D01*
X163007510Y-109647940D01*
X163065323Y-109644500D01*
X163164959Y-109653196D01*
G36*
X165081952Y-108855853D02*
X165222152Y-109403380D01*
X165337235Y-108944502D01*
X165379684Y-108775286D01*
X165418236Y-108621689D01*
X165449485Y-108497278D01*
X165470024Y-108415616D01*
X165474388Y-108398312D01*
X165490902Y-108349739D01*
X165520252Y-108323614D01*
X165579253Y-108313009D01*
X165684716Y-108311000D01*
X165686354Y-108311000D01*
X165786643Y-108315516D01*
X165855463Y-108327254D01*
X165876250Y-108340744D01*
X165868421Y-108377813D01*
X165846687Y-108466197D01*
X165813676Y-108595902D01*
X165772017Y-108756931D01*
X165724337Y-108939291D01*
X165673266Y-109132987D01*
X165621431Y-109328023D01*
X165571461Y-109514405D01*
X165525984Y-109682138D01*
X165487628Y-109821228D01*
X165476638Y-109860357D01*
X165429078Y-110028589D01*
X165248298Y-110019107D01*
X165067519Y-110009625D01*
X164917233Y-109456919D01*
X164868447Y-109277868D01*
X164825123Y-109119557D01*
X164790119Y-108992373D01*
X164766292Y-108906700D01*
X164756751Y-108873629D01*
X164745811Y-108892962D01*
X164721374Y-108964920D01*
X164686106Y-109080721D01*
X164642672Y-109231582D01*
X164593740Y-109408720D01*
X164588973Y-109426334D01*
X164431390Y-110009625D01*
X164248561Y-110019158D01*
X164130068Y-110019521D01*
X164066219Y-110004381D01*
X164051150Y-109987408D01*
X164035464Y-109935311D01*
X164007399Y-109834527D01*
X163969574Y-109695053D01*
X163924608Y-109526890D01*
X163875119Y-109340036D01*
X163823725Y-109144489D01*
X163773046Y-108950250D01*
X163725698Y-108767318D01*
X163684301Y-108605690D01*
X163651474Y-108475366D01*
X163629834Y-108386345D01*
X163622000Y-108348627D01*
X163622000Y-108348596D01*
X163652875Y-108324558D01*
X163744106Y-108312450D01*
X163809021Y-108311000D01*
X163996043Y-108311000D01*
X164061569Y-108557062D01*
X164100753Y-108706567D01*
X164146611Y-108885051D01*
X164190759Y-109059808D01*
X164201345Y-109102301D01*
X164275594Y-109401477D01*
X164418598Y-108864176D01*
X164561601Y-108326875D01*
X164751676Y-108317600D01*
X164941751Y-108308326D01*
X165081952Y-108855853D01*
X165081952Y-108855853D01*
G37*
X165081952Y-108855853D02*
X165222152Y-109403380D01*
X165337235Y-108944502D01*
X165379684Y-108775286D01*
X165418236Y-108621689D01*
X165449485Y-108497278D01*
X165470024Y-108415616D01*
X165474388Y-108398312D01*
X165490902Y-108349739D01*
X165520252Y-108323614D01*
X165579253Y-108313009D01*
X165684716Y-108311000D01*
X165686354Y-108311000D01*
X165786643Y-108315516D01*
X165855463Y-108327254D01*
X165876250Y-108340744D01*
X165868421Y-108377813D01*
X165846687Y-108466197D01*
X165813676Y-108595902D01*
X165772017Y-108756931D01*
X165724337Y-108939291D01*
X165673266Y-109132987D01*
X165621431Y-109328023D01*
X165571461Y-109514405D01*
X165525984Y-109682138D01*
X165487628Y-109821228D01*
X165476638Y-109860357D01*
X165429078Y-110028589D01*
X165248298Y-110019107D01*
X165067519Y-110009625D01*
X164917233Y-109456919D01*
X164868447Y-109277868D01*
X164825123Y-109119557D01*
X164790119Y-108992373D01*
X164766292Y-108906700D01*
X164756751Y-108873629D01*
X164745811Y-108892962D01*
X164721374Y-108964920D01*
X164686106Y-109080721D01*
X164642672Y-109231582D01*
X164593740Y-109408720D01*
X164588973Y-109426334D01*
X164431390Y-110009625D01*
X164248561Y-110019158D01*
X164130068Y-110019521D01*
X164066219Y-110004381D01*
X164051150Y-109987408D01*
X164035464Y-109935311D01*
X164007399Y-109834527D01*
X163969574Y-109695053D01*
X163924608Y-109526890D01*
X163875119Y-109340036D01*
X163823725Y-109144489D01*
X163773046Y-108950250D01*
X163725698Y-108767318D01*
X163684301Y-108605690D01*
X163651474Y-108475366D01*
X163629834Y-108386345D01*
X163622000Y-108348627D01*
X163622000Y-108348596D01*
X163652875Y-108324558D01*
X163744106Y-108312450D01*
X163809021Y-108311000D01*
X163996043Y-108311000D01*
X164061569Y-108557062D01*
X164100753Y-108706567D01*
X164146611Y-108885051D01*
X164190759Y-109059808D01*
X164201345Y-109102301D01*
X164275594Y-109401477D01*
X164418598Y-108864176D01*
X164561601Y-108326875D01*
X164751676Y-108317600D01*
X164941751Y-108308326D01*
X165081952Y-108855853D01*
G36*
X166384250Y-110025500D02*
X166035000Y-110025500D01*
X166035000Y-108311000D01*
X166384250Y-108311000D01*
X166384250Y-110025500D01*
X166384250Y-110025500D01*
G37*
X166384250Y-110025500D02*
X166035000Y-110025500D01*
X166035000Y-108311000D01*
X166384250Y-108311000D01*
X166384250Y-110025500D01*
G36*
X167282081Y-108311790D02*
X167421284Y-108315110D01*
X167522016Y-108322386D01*
X167596786Y-108335042D01*
X167658105Y-108354504D01*
X167718482Y-108382196D01*
X167718960Y-108382437D01*
X167847033Y-108480012D01*
X167933015Y-108614311D01*
X167972974Y-108771305D01*
X167962978Y-108936964D01*
X167912596Y-109073495D01*
X167846737Y-109170200D01*
X167761716Y-109238846D01*
X167646234Y-109284118D01*
X167488992Y-109310705D01*
X167313173Y-109322146D01*
X166987500Y-109334202D01*
X166987500Y-110025500D01*
X166606500Y-110025500D01*
X166606500Y-108660250D01*
X166987500Y-108660250D01*
X166987500Y-108977750D01*
X167243587Y-108977750D01*
X167372397Y-108973795D01*
X167482255Y-108963319D01*
X167553029Y-108948406D01*
X167561087Y-108944882D01*
X167611986Y-108883507D01*
X167622500Y-108819000D01*
X167610937Y-108749880D01*
X167570165Y-108703306D01*
X167491056Y-108675454D01*
X167364484Y-108662501D01*
X167243587Y-108660250D01*
X166987500Y-108660250D01*
X166606500Y-108660250D01*
X166606500Y-108311000D01*
X167091897Y-108311000D01*
X167282081Y-108311790D01*
X167282081Y-108311790D01*
G37*
X167282081Y-108311790D02*
X167421284Y-108315110D01*
X167522016Y-108322386D01*
X167596786Y-108335042D01*
X167658105Y-108354504D01*
X167718482Y-108382196D01*
X167718960Y-108382437D01*
X167847033Y-108480012D01*
X167933015Y-108614311D01*
X167972974Y-108771305D01*
X167962978Y-108936964D01*
X167912596Y-109073495D01*
X167846737Y-109170200D01*
X167761716Y-109238846D01*
X167646234Y-109284118D01*
X167488992Y-109310705D01*
X167313173Y-109322146D01*
X166987500Y-109334202D01*
X166987500Y-110025500D01*
X166606500Y-110025500D01*
X166606500Y-108660250D01*
X166987500Y-108660250D01*
X166987500Y-108977750D01*
X167243587Y-108977750D01*
X167372397Y-108973795D01*
X167482255Y-108963319D01*
X167553029Y-108948406D01*
X167561087Y-108944882D01*
X167611986Y-108883507D01*
X167622500Y-108819000D01*
X167610937Y-108749880D01*
X167570165Y-108703306D01*
X167491056Y-108675454D01*
X167364484Y-108662501D01*
X167243587Y-108660250D01*
X166987500Y-108660250D01*
X166606500Y-108660250D01*
X166606500Y-108311000D01*
X167091897Y-108311000D01*
X167282081Y-108311790D01*
G36*
X168621097Y-108318284D02*
X168810070Y-108326875D01*
X169135557Y-109136500D01*
X169221031Y-109350378D01*
X169298218Y-109545947D01*
X169364036Y-109715203D01*
X169415402Y-109850139D01*
X169449234Y-109942749D01*
X169462450Y-109985027D01*
X169462521Y-109985812D01*
X169437548Y-110010709D01*
X169357293Y-110023371D01*
X169276947Y-110025500D01*
X169089894Y-110025500D01*
X168988264Y-109771500D01*
X168252391Y-109771500D01*
X168152617Y-110025500D01*
X167748647Y-110025500D01*
X167791219Y-109922312D01*
X167814430Y-109864911D01*
X167857309Y-109757774D01*
X167916147Y-109610208D01*
X167987238Y-109431519D01*
X168008793Y-109377248D01*
X168416250Y-109377248D01*
X168416250Y-109377337D01*
X168445218Y-109384041D01*
X168521010Y-109388782D01*
X168622625Y-109390500D01*
X168729078Y-109386077D01*
X168803174Y-109374434D01*
X168829000Y-109359084D01*
X168817522Y-109312881D01*
X168788081Y-109227546D01*
X168748162Y-109122123D01*
X168705251Y-109015657D01*
X168666833Y-108927192D01*
X168640395Y-108875774D01*
X168637535Y-108871978D01*
X168619657Y-108890346D01*
X168585879Y-108952507D01*
X168542995Y-109042949D01*
X168497797Y-109146157D01*
X168457078Y-109246618D01*
X168427631Y-109328820D01*
X168416250Y-109377248D01*
X168008793Y-109377248D01*
X168066875Y-109231013D01*
X168132957Y-109064409D01*
X168432125Y-108309693D01*
X168621097Y-108318284D01*
X168621097Y-108318284D01*
G37*
X168621097Y-108318284D02*
X168810070Y-108326875D01*
X169135557Y-109136500D01*
X169221031Y-109350378D01*
X169298218Y-109545947D01*
X169364036Y-109715203D01*
X169415402Y-109850139D01*
X169449234Y-109942749D01*
X169462450Y-109985027D01*
X169462521Y-109985812D01*
X169437548Y-110010709D01*
X169357293Y-110023371D01*
X169276947Y-110025500D01*
X169089894Y-110025500D01*
X168988264Y-109771500D01*
X168252391Y-109771500D01*
X168152617Y-110025500D01*
X167748647Y-110025500D01*
X167791219Y-109922312D01*
X167814430Y-109864911D01*
X167857309Y-109757774D01*
X167916147Y-109610208D01*
X167987238Y-109431519D01*
X168008793Y-109377248D01*
X168416250Y-109377248D01*
X168416250Y-109377337D01*
X168445218Y-109384041D01*
X168521010Y-109388782D01*
X168622625Y-109390500D01*
X168729078Y-109386077D01*
X168803174Y-109374434D01*
X168829000Y-109359084D01*
X168817522Y-109312881D01*
X168788081Y-109227546D01*
X168748162Y-109122123D01*
X168705251Y-109015657D01*
X168666833Y-108927192D01*
X168640395Y-108875774D01*
X168637535Y-108871978D01*
X168619657Y-108890346D01*
X168585879Y-108952507D01*
X168542995Y-109042949D01*
X168497797Y-109146157D01*
X168457078Y-109246618D01*
X168427631Y-109328820D01*
X168416250Y-109377248D01*
X168008793Y-109377248D01*
X168066875Y-109231013D01*
X168132957Y-109064409D01*
X168432125Y-108309693D01*
X168621097Y-108318284D01*
G36*
X170368679Y-108325866D02*
X170580527Y-108387064D01*
X170711326Y-108456930D01*
X170831527Y-108535658D01*
X170600859Y-108817158D01*
X170478194Y-108754579D01*
X170331820Y-108706292D01*
X170187577Y-108692118D01*
X170006920Y-108716485D01*
X169868376Y-108788091D01*
X169773738Y-108905117D01*
X169724797Y-109065749D01*
X169718000Y-109168250D01*
X169741922Y-109351317D01*
X169812494Y-109491747D01*
X169927925Y-109587720D01*
X170086421Y-109637421D01*
X170187577Y-109644381D01*
X170357229Y-109624693D01*
X170479038Y-109581490D01*
X170602548Y-109518480D01*
X170713447Y-109651988D01*
X170772044Y-109729929D01*
X170805569Y-109789341D01*
X170808676Y-109810852D01*
X170773741Y-109838060D01*
X170699703Y-109882069D01*
X170628565Y-109919936D01*
X170454891Y-109982890D01*
X170256966Y-110014532D01*
X170060040Y-110012946D01*
X169889360Y-109976214D01*
X169888984Y-109976075D01*
X169730412Y-109892149D01*
X169578312Y-109767886D01*
X169456456Y-109624046D01*
X169423598Y-109569651D01*
X169386152Y-109484890D01*
X169364482Y-109391719D01*
X169354946Y-109269284D01*
X169353530Y-109168250D01*
X169361521Y-108984912D01*
X169390642Y-108843014D01*
X169448365Y-108721980D01*
X169542163Y-108601237D01*
X169570742Y-108570155D01*
X169736200Y-108438362D01*
X169933212Y-108352836D01*
X170148473Y-108314897D01*
X170368679Y-108325866D01*
X170368679Y-108325866D01*
G37*
X170368679Y-108325866D02*
X170580527Y-108387064D01*
X170711326Y-108456930D01*
X170831527Y-108535658D01*
X170600859Y-108817158D01*
X170478194Y-108754579D01*
X170331820Y-108706292D01*
X170187577Y-108692118D01*
X170006920Y-108716485D01*
X169868376Y-108788091D01*
X169773738Y-108905117D01*
X169724797Y-109065749D01*
X169718000Y-109168250D01*
X169741922Y-109351317D01*
X169812494Y-109491747D01*
X169927925Y-109587720D01*
X170086421Y-109637421D01*
X170187577Y-109644381D01*
X170357229Y-109624693D01*
X170479038Y-109581490D01*
X170602548Y-109518480D01*
X170713447Y-109651988D01*
X170772044Y-109729929D01*
X170805569Y-109789341D01*
X170808676Y-109810852D01*
X170773741Y-109838060D01*
X170699703Y-109882069D01*
X170628565Y-109919936D01*
X170454891Y-109982890D01*
X170256966Y-110014532D01*
X170060040Y-110012946D01*
X169889360Y-109976214D01*
X169888984Y-109976075D01*
X169730412Y-109892149D01*
X169578312Y-109767886D01*
X169456456Y-109624046D01*
X169423598Y-109569651D01*
X169386152Y-109484890D01*
X169364482Y-109391719D01*
X169354946Y-109269284D01*
X169353530Y-109168250D01*
X169361521Y-108984912D01*
X169390642Y-108843014D01*
X169448365Y-108721980D01*
X169542163Y-108601237D01*
X169570742Y-108570155D01*
X169736200Y-108438362D01*
X169933212Y-108352836D01*
X170148473Y-108314897D01*
X170368679Y-108325866D01*
G36*
X160257243Y-108927119D02*
X160357426Y-108983595D01*
X160431645Y-109082043D01*
X160446959Y-109120502D01*
X160459128Y-109250692D01*
X160418104Y-109375542D01*
X160332316Y-109474392D01*
X160292327Y-109499516D01*
X160178962Y-109541956D01*
X160078363Y-109535775D01*
X159995360Y-109499758D01*
X159903484Y-109427621D01*
X159855648Y-109327545D01*
X159843750Y-109206416D01*
X159869373Y-109082136D01*
X159937160Y-108990125D01*
X160033484Y-108932325D01*
X160144720Y-108910676D01*
X160257243Y-108927119D01*
X160257243Y-108927119D01*
G37*
X160257243Y-108927119D02*
X160357426Y-108983595D01*
X160431645Y-109082043D01*
X160446959Y-109120502D01*
X160459128Y-109250692D01*
X160418104Y-109375542D01*
X160332316Y-109474392D01*
X160292327Y-109499516D01*
X160178962Y-109541956D01*
X160078363Y-109535775D01*
X159995360Y-109499758D01*
X159903484Y-109427621D01*
X159855648Y-109327545D01*
X159843750Y-109206416D01*
X159869373Y-109082136D01*
X159937160Y-108990125D01*
X160033484Y-108932325D01*
X160144720Y-108910676D01*
X160257243Y-108927119D01*
G36*
X160961219Y-108926721D02*
X161062851Y-108977629D01*
X161138980Y-109062977D01*
X161175795Y-109180495D01*
X161177250Y-109211762D01*
X161160438Y-109346629D01*
X161104522Y-109441066D01*
X161019135Y-109501296D01*
X160909637Y-109542735D01*
X160813296Y-109536772D01*
X160712210Y-109488088D01*
X160614303Y-109394457D01*
X160564087Y-109271663D01*
X160568295Y-109138244D01*
X160575914Y-109112907D01*
X160641433Y-109003347D01*
X160736699Y-108937309D01*
X160847898Y-108912525D01*
X160961219Y-108926721D01*
X160961219Y-108926721D01*
G37*
X160961219Y-108926721D02*
X161062851Y-108977629D01*
X161138980Y-109062977D01*
X161175795Y-109180495D01*
X161177250Y-109211762D01*
X161160438Y-109346629D01*
X161104522Y-109441066D01*
X161019135Y-109501296D01*
X160909637Y-109542735D01*
X160813296Y-109536772D01*
X160712210Y-109488088D01*
X160614303Y-109394457D01*
X160564087Y-109271663D01*
X160568295Y-109138244D01*
X160575914Y-109112907D01*
X160641433Y-109003347D01*
X160736699Y-108937309D01*
X160847898Y-108912525D01*
X160961219Y-108926721D01*
G36*
X161736356Y-108942160D02*
X161832187Y-109016467D01*
X161893587Y-109123028D01*
X161912928Y-109247704D01*
X161882584Y-109376356D01*
X161873194Y-109395275D01*
X161802733Y-109468778D01*
X161696006Y-109519896D01*
X161578815Y-109539660D01*
X161494750Y-109526827D01*
X161383202Y-109455564D01*
X161310670Y-109347665D01*
X161284117Y-109220788D01*
X161310507Y-109092588D01*
X161317643Y-109077798D01*
X161388435Y-108980142D01*
X161483773Y-108928665D01*
X161613722Y-108914250D01*
X161736356Y-108942160D01*
X161736356Y-108942160D01*
G37*
X161736356Y-108942160D02*
X161832187Y-109016467D01*
X161893587Y-109123028D01*
X161912928Y-109247704D01*
X161882584Y-109376356D01*
X161873194Y-109395275D01*
X161802733Y-109468778D01*
X161696006Y-109519896D01*
X161578815Y-109539660D01*
X161494750Y-109526827D01*
X161383202Y-109455564D01*
X161310670Y-109347665D01*
X161284117Y-109220788D01*
X161310507Y-109092588D01*
X161317643Y-109077798D01*
X161388435Y-108980142D01*
X161483773Y-108928665D01*
X161613722Y-108914250D01*
X161736356Y-108942160D01*
G36*
X162460046Y-108940183D02*
X162552718Y-109008717D01*
X162612090Y-109105950D01*
X162635757Y-109217981D01*
X162621316Y-109330910D01*
X162566362Y-109430837D01*
X162468490Y-109503860D01*
X162440417Y-109515124D01*
X162346630Y-109541903D01*
X162277231Y-109541996D01*
X162225000Y-109526827D01*
X162113452Y-109455564D01*
X162040920Y-109347665D01*
X162014367Y-109220788D01*
X162040757Y-109092588D01*
X162047893Y-109077798D01*
X162120990Y-108978133D01*
X162219730Y-108926725D01*
X162336480Y-108914250D01*
X162460046Y-108940183D01*
X162460046Y-108940183D01*
G37*
X162460046Y-108940183D02*
X162552718Y-109008717D01*
X162612090Y-109105950D01*
X162635757Y-109217981D01*
X162621316Y-109330910D01*
X162566362Y-109430837D01*
X162468490Y-109503860D01*
X162440417Y-109515124D01*
X162346630Y-109541903D01*
X162277231Y-109541996D01*
X162225000Y-109526827D01*
X162113452Y-109455564D01*
X162040920Y-109347665D01*
X162014367Y-109220788D01*
X162040757Y-109092588D01*
X162047893Y-109077798D01*
X162120990Y-108978133D01*
X162219730Y-108926725D01*
X162336480Y-108914250D01*
X162460046Y-108940183D01*
G36*
X163183584Y-108940018D02*
X163280747Y-109008197D01*
X163342993Y-109105099D01*
X163367110Y-109217037D01*
X163349888Y-109330322D01*
X163288117Y-109431266D01*
X163192114Y-109500094D01*
X163093431Y-109538614D01*
X163014972Y-109542445D01*
X162935822Y-109518132D01*
X162870221Y-109474751D01*
X162801973Y-109406206D01*
X162797862Y-109401082D01*
X162749413Y-109318852D01*
X162739499Y-109227743D01*
X162743888Y-109184174D01*
X162788980Y-109050487D01*
X162879176Y-108959555D01*
X163008182Y-108916844D01*
X163054712Y-108914250D01*
X163183584Y-108940018D01*
X163183584Y-108940018D01*
G37*
X163183584Y-108940018D02*
X163280747Y-109008197D01*
X163342993Y-109105099D01*
X163367110Y-109217037D01*
X163349888Y-109330322D01*
X163288117Y-109431266D01*
X163192114Y-109500094D01*
X163093431Y-109538614D01*
X163014972Y-109542445D01*
X162935822Y-109518132D01*
X162870221Y-109474751D01*
X162801973Y-109406206D01*
X162797862Y-109401082D01*
X162749413Y-109318852D01*
X162739499Y-109227743D01*
X162743888Y-109184174D01*
X162788980Y-109050487D01*
X162879176Y-108959555D01*
X163008182Y-108916844D01*
X163054712Y-108914250D01*
X163183584Y-108940018D01*
G36*
X160255093Y-108201518D02*
X160357274Y-108261674D01*
X160435444Y-108364771D01*
X160449897Y-108397997D01*
X160461402Y-108504873D01*
X160431546Y-108622922D01*
X160368399Y-108723456D01*
X160354492Y-108737142D01*
X160254442Y-108790225D01*
X160131015Y-108805556D01*
X160013848Y-108780335D01*
X159995360Y-108771077D01*
X159901778Y-108695436D01*
X159854150Y-108592051D01*
X159843750Y-108481512D01*
X159868960Y-108354109D01*
X159935835Y-108260598D01*
X160031238Y-108202790D01*
X160142036Y-108182493D01*
X160255093Y-108201518D01*
X160255093Y-108201518D01*
G37*
X160255093Y-108201518D02*
X160357274Y-108261674D01*
X160435444Y-108364771D01*
X160449897Y-108397997D01*
X160461402Y-108504873D01*
X160431546Y-108622922D01*
X160368399Y-108723456D01*
X160354492Y-108737142D01*
X160254442Y-108790225D01*
X160131015Y-108805556D01*
X160013848Y-108780335D01*
X159995360Y-108771077D01*
X159901778Y-108695436D01*
X159854150Y-108592051D01*
X159843750Y-108481512D01*
X159868960Y-108354109D01*
X159935835Y-108260598D01*
X160031238Y-108202790D01*
X160142036Y-108182493D01*
X160255093Y-108201518D01*
G36*
X160961920Y-108200795D02*
X161079563Y-108266197D01*
X161148199Y-108339129D01*
X161174742Y-108420845D01*
X161177250Y-108474659D01*
X161161846Y-108610538D01*
X161110077Y-108705064D01*
X161019135Y-108771046D01*
X160903577Y-108813238D01*
X160799125Y-108805613D01*
X160732750Y-108778593D01*
X160654132Y-108711774D01*
X160591688Y-108610570D01*
X160558076Y-108500812D01*
X160559972Y-108426068D01*
X160618925Y-108304276D01*
X160715390Y-108223112D01*
X160834633Y-108187107D01*
X160961920Y-108200795D01*
X160961920Y-108200795D01*
G37*
X160961920Y-108200795D02*
X161079563Y-108266197D01*
X161148199Y-108339129D01*
X161174742Y-108420845D01*
X161177250Y-108474659D01*
X161161846Y-108610538D01*
X161110077Y-108705064D01*
X161019135Y-108771046D01*
X160903577Y-108813238D01*
X160799125Y-108805613D01*
X160732750Y-108778593D01*
X160654132Y-108711774D01*
X160591688Y-108610570D01*
X160558076Y-108500812D01*
X160559972Y-108426068D01*
X160618925Y-108304276D01*
X160715390Y-108223112D01*
X160834633Y-108187107D01*
X160961920Y-108200795D01*
G36*
X161704832Y-108203105D02*
X161814692Y-108276807D01*
X161890279Y-108390442D01*
X161912497Y-108515010D01*
X161883411Y-108634883D01*
X161805086Y-108734433D01*
X161749385Y-108771046D01*
X161633521Y-108813289D01*
X161529350Y-108805494D01*
X161464738Y-108778773D01*
X161396355Y-108724701D01*
X161331878Y-108644482D01*
X161325487Y-108633986D01*
X161286634Y-108552357D01*
X161282561Y-108479765D01*
X161300161Y-108407374D01*
X161364537Y-108287012D01*
X161463323Y-108210339D01*
X161581695Y-108181116D01*
X161704832Y-108203105D01*
X161704832Y-108203105D01*
G37*
X161704832Y-108203105D02*
X161814692Y-108276807D01*
X161890279Y-108390442D01*
X161912497Y-108515010D01*
X161883411Y-108634883D01*
X161805086Y-108734433D01*
X161749385Y-108771046D01*
X161633521Y-108813289D01*
X161529350Y-108805494D01*
X161464738Y-108778773D01*
X161396355Y-108724701D01*
X161331878Y-108644482D01*
X161325487Y-108633986D01*
X161286634Y-108552357D01*
X161282561Y-108479765D01*
X161300161Y-108407374D01*
X161364537Y-108287012D01*
X161463323Y-108210339D01*
X161581695Y-108181116D01*
X161704832Y-108203105D01*
G36*
X162458208Y-108212202D02*
X162555182Y-108286957D01*
X162619096Y-108393484D01*
X162641646Y-108517004D01*
X162614528Y-108642735D01*
X162605058Y-108662008D01*
X162528646Y-108744460D01*
X162416963Y-108796978D01*
X162294582Y-108810861D01*
X162225000Y-108796577D01*
X162113452Y-108725314D01*
X162040920Y-108617415D01*
X162014367Y-108490538D01*
X162040757Y-108362338D01*
X162047893Y-108347548D01*
X162120990Y-108247883D01*
X162219730Y-108196475D01*
X162336480Y-108184000D01*
X162458208Y-108212202D01*
X162458208Y-108212202D01*
G37*
X162458208Y-108212202D02*
X162555182Y-108286957D01*
X162619096Y-108393484D01*
X162641646Y-108517004D01*
X162614528Y-108642735D01*
X162605058Y-108662008D01*
X162528646Y-108744460D01*
X162416963Y-108796978D01*
X162294582Y-108810861D01*
X162225000Y-108796577D01*
X162113452Y-108725314D01*
X162040920Y-108617415D01*
X162014367Y-108490538D01*
X162040757Y-108362338D01*
X162047893Y-108347548D01*
X162120990Y-108247883D01*
X162219730Y-108196475D01*
X162336480Y-108184000D01*
X162458208Y-108212202D01*
G36*
X163150930Y-108200218D02*
X163266855Y-108268785D01*
X163275192Y-108276807D01*
X163348624Y-108386731D01*
X163369064Y-108503811D01*
X163344194Y-108616474D01*
X163281697Y-108713151D01*
X163189258Y-108782271D01*
X163074560Y-108812263D01*
X162945285Y-108791556D01*
X162935822Y-108787882D01*
X162851834Y-108729967D01*
X162779431Y-108640678D01*
X162737242Y-108545398D01*
X162733000Y-108511516D01*
X162753520Y-108407834D01*
X162805029Y-108303873D01*
X162872446Y-108227955D01*
X162889991Y-108216691D01*
X163017798Y-108181681D01*
X163150930Y-108200218D01*
X163150930Y-108200218D01*
G37*
X163150930Y-108200218D02*
X163266855Y-108268785D01*
X163275192Y-108276807D01*
X163348624Y-108386731D01*
X163369064Y-108503811D01*
X163344194Y-108616474D01*
X163281697Y-108713151D01*
X163189258Y-108782271D01*
X163074560Y-108812263D01*
X162945285Y-108791556D01*
X162935822Y-108787882D01*
X162851834Y-108729967D01*
X162779431Y-108640678D01*
X162737242Y-108545398D01*
X162733000Y-108511516D01*
X162753520Y-108407834D01*
X162805029Y-108303873D01*
X162872446Y-108227955D01*
X162889991Y-108216691D01*
X163017798Y-108181681D01*
X163150930Y-108200218D01*
G36*
X160283193Y-107490894D02*
X160345546Y-107532776D01*
X160412693Y-107608272D01*
X160453831Y-107689417D01*
X160456220Y-107699456D01*
X160452488Y-107810247D01*
X160412129Y-107926890D01*
X160346883Y-108016077D01*
X160343626Y-108018848D01*
X160259619Y-108058318D01*
X160148034Y-108076040D01*
X160042275Y-108067972D01*
X160013834Y-108058745D01*
X159917479Y-107984992D01*
X159858950Y-107867798D01*
X159843750Y-107751132D01*
X159870568Y-107624430D01*
X159941784Y-107529023D01*
X160043534Y-107470944D01*
X160161958Y-107456223D01*
X160283193Y-107490894D01*
X160283193Y-107490894D01*
G37*
X160283193Y-107490894D02*
X160345546Y-107532776D01*
X160412693Y-107608272D01*
X160453831Y-107689417D01*
X160456220Y-107699456D01*
X160452488Y-107810247D01*
X160412129Y-107926890D01*
X160346883Y-108016077D01*
X160343626Y-108018848D01*
X160259619Y-108058318D01*
X160148034Y-108076040D01*
X160042275Y-108067972D01*
X160013834Y-108058745D01*
X159917479Y-107984992D01*
X159858950Y-107867798D01*
X159843750Y-107751132D01*
X159870568Y-107624430D01*
X159941784Y-107529023D01*
X160043534Y-107470944D01*
X160161958Y-107456223D01*
X160283193Y-107490894D01*
G36*
X161038518Y-107505284D02*
X161079563Y-107535947D01*
X161156271Y-107636294D01*
X161183087Y-107753314D01*
X161164553Y-107871397D01*
X161105208Y-107974934D01*
X161009591Y-108048314D01*
X160923250Y-108073412D01*
X160828574Y-108075601D01*
X160751418Y-108061365D01*
X160748625Y-108060213D01*
X160638676Y-107980706D01*
X160575755Y-107861359D01*
X160562476Y-107769204D01*
X160569104Y-107673993D01*
X160604804Y-107603980D01*
X160662271Y-107545985D01*
X160786010Y-107469566D01*
X160912933Y-107455962D01*
X161038518Y-107505284D01*
X161038518Y-107505284D01*
G37*
X161038518Y-107505284D02*
X161079563Y-107535947D01*
X161156271Y-107636294D01*
X161183087Y-107753314D01*
X161164553Y-107871397D01*
X161105208Y-107974934D01*
X161009591Y-108048314D01*
X160923250Y-108073412D01*
X160828574Y-108075601D01*
X160751418Y-108061365D01*
X160748625Y-108060213D01*
X160638676Y-107980706D01*
X160575755Y-107861359D01*
X160562476Y-107769204D01*
X160569104Y-107673993D01*
X160604804Y-107603980D01*
X160662271Y-107545985D01*
X160786010Y-107469566D01*
X160912933Y-107455962D01*
X161038518Y-107505284D01*
G36*
X161727615Y-107482672D02*
X161822342Y-107548482D01*
X161886758Y-107649590D01*
X161907500Y-107767037D01*
X161880751Y-107906870D01*
X161803939Y-108009589D01*
X161682214Y-108069292D01*
X161636024Y-108078162D01*
X161537868Y-108081733D01*
X161462067Y-108052583D01*
X161408220Y-108011840D01*
X161315343Y-107900686D01*
X161284388Y-107776740D01*
X161315843Y-107642076D01*
X161319459Y-107634262D01*
X161398498Y-107527957D01*
X161501999Y-107469318D01*
X161616270Y-107455254D01*
X161727615Y-107482672D01*
X161727615Y-107482672D01*
G37*
X161727615Y-107482672D02*
X161822342Y-107548482D01*
X161886758Y-107649590D01*
X161907500Y-107767037D01*
X161880751Y-107906870D01*
X161803939Y-108009589D01*
X161682214Y-108069292D01*
X161636024Y-108078162D01*
X161537868Y-108081733D01*
X161462067Y-108052583D01*
X161408220Y-108011840D01*
X161315343Y-107900686D01*
X161284388Y-107776740D01*
X161315843Y-107642076D01*
X161319459Y-107634262D01*
X161398498Y-107527957D01*
X161501999Y-107469318D01*
X161616270Y-107455254D01*
X161727615Y-107482672D01*
G36*
X162456713Y-107479900D02*
X162552730Y-107548551D01*
X162615131Y-107646446D01*
X162640368Y-107759623D01*
X162624892Y-107874119D01*
X162565156Y-107975973D01*
X162479635Y-108040796D01*
X162347978Y-108084325D01*
X162229417Y-108067803D01*
X162133265Y-108007461D01*
X162046531Y-107900367D01*
X162012939Y-107781392D01*
X162027704Y-107663946D01*
X162086039Y-107561441D01*
X162183159Y-107487287D01*
X162314278Y-107454894D01*
X162330629Y-107454455D01*
X162456713Y-107479900D01*
X162456713Y-107479900D01*
G37*
X162456713Y-107479900D02*
X162552730Y-107548551D01*
X162615131Y-107646446D01*
X162640368Y-107759623D01*
X162624892Y-107874119D01*
X162565156Y-107975973D01*
X162479635Y-108040796D01*
X162347978Y-108084325D01*
X162229417Y-108067803D01*
X162133265Y-108007461D01*
X162046531Y-107900367D01*
X162012939Y-107781392D01*
X162027704Y-107663946D01*
X162086039Y-107561441D01*
X162183159Y-107487287D01*
X162314278Y-107454894D01*
X162330629Y-107454455D01*
X162456713Y-107479900D01*
G36*
X163193590Y-107484540D02*
X163287456Y-107552966D01*
X163349680Y-107654399D01*
X163367294Y-107760870D01*
X163340651Y-107898758D01*
X163271081Y-108001870D01*
X163171443Y-108064832D01*
X163054595Y-108082272D01*
X162933397Y-108048816D01*
X162840950Y-107980800D01*
X162757696Y-107870260D01*
X162734870Y-107758567D01*
X162770431Y-107633171D01*
X162780953Y-107611864D01*
X162861764Y-107512782D01*
X162966782Y-107460900D01*
X163082044Y-107452669D01*
X163193590Y-107484540D01*
X163193590Y-107484540D01*
G37*
X163193590Y-107484540D02*
X163287456Y-107552966D01*
X163349680Y-107654399D01*
X163367294Y-107760870D01*
X163340651Y-107898758D01*
X163271081Y-108001870D01*
X163171443Y-108064832D01*
X163054595Y-108082272D01*
X162933397Y-108048816D01*
X162840950Y-107980800D01*
X162757696Y-107870260D01*
X162734870Y-107758567D01*
X162770431Y-107633171D01*
X162780953Y-107611864D01*
X162861764Y-107512782D01*
X162966782Y-107460900D01*
X163082044Y-107452669D01*
X163193590Y-107484540D01*
G36*
X178748940Y-108709389D02*
X178863301Y-108719665D01*
X178944007Y-108733156D01*
X179007672Y-108749968D01*
X179078213Y-108773092D01*
X179148289Y-108799514D01*
X179210559Y-108826219D01*
X179257682Y-108850191D01*
X179282316Y-108868417D01*
X179284267Y-108872899D01*
X179275240Y-108889380D01*
X179252547Y-108923142D01*
X179222762Y-108965094D01*
X179192465Y-109006147D01*
X179168231Y-109037211D01*
X179156706Y-109049200D01*
X179141268Y-109043413D01*
X179102979Y-109028299D01*
X179054353Y-109008827D01*
X178982082Y-108983975D01*
X178897161Y-108960788D01*
X178833741Y-108947285D01*
X178746029Y-108937118D01*
X178642385Y-108933230D01*
X178532715Y-108935191D01*
X178426922Y-108942571D01*
X178334912Y-108954939D01*
X178266589Y-108971867D01*
X178266473Y-108971909D01*
X178184660Y-109013573D01*
X178126155Y-109068796D01*
X178093534Y-109132708D01*
X178089368Y-109200439D01*
X178113058Y-109262222D01*
X178141527Y-109298487D01*
X178179288Y-109327066D01*
X178231298Y-109349617D01*
X178302511Y-109367794D01*
X178397884Y-109383255D01*
X178516505Y-109397051D01*
X178697211Y-109417031D01*
X178848160Y-109436854D01*
X178973446Y-109457427D01*
X179077161Y-109479656D01*
X179163400Y-109504444D01*
X179236255Y-109532700D01*
X179299820Y-109565327D01*
X179313222Y-109573340D01*
X179385705Y-109636537D01*
X179437620Y-109720498D01*
X179468874Y-109819011D01*
X179479372Y-109925862D01*
X179469023Y-110034839D01*
X179437734Y-110139730D01*
X179385411Y-110234323D01*
X179324137Y-110302158D01*
X179224684Y-110369807D01*
X179099742Y-110423144D01*
X178954953Y-110461193D01*
X178795957Y-110482975D01*
X178628398Y-110487514D01*
X178457917Y-110473833D01*
X178392584Y-110463481D01*
X178211052Y-110420502D01*
X178054388Y-110362410D01*
X178014267Y-110342938D01*
X177953635Y-110311251D01*
X177919362Y-110288353D01*
X177908210Y-110266575D01*
X177916937Y-110238248D01*
X177942304Y-110195706D01*
X177948117Y-110186382D01*
X177979091Y-110140220D01*
X178004682Y-110108572D01*
X178017361Y-110099067D01*
X178039659Y-110106212D01*
X178081468Y-110124644D01*
X178118053Y-110142508D01*
X178261649Y-110200772D01*
X178422807Y-110238014D01*
X178606134Y-110255195D01*
X178666200Y-110256580D01*
X178830597Y-110250108D01*
X178966193Y-110227271D01*
X179074086Y-110187614D01*
X179155373Y-110130680D01*
X179211150Y-110056014D01*
X179225420Y-110024122D01*
X179242466Y-109974406D01*
X179246099Y-109938492D01*
X179236505Y-109899163D01*
X179227043Y-109873461D01*
X179200662Y-109820105D01*
X179163964Y-109776675D01*
X179113302Y-109741864D01*
X179045027Y-109714367D01*
X178955494Y-109692877D01*
X178841054Y-109676087D01*
X178698060Y-109662693D01*
X178623867Y-109657454D01*
X178445791Y-109642800D01*
X178298232Y-109623522D01*
X178178026Y-109598518D01*
X178082006Y-109566685D01*
X178007007Y-109526919D01*
X177949863Y-109478118D01*
X177907408Y-109419178D01*
X177899967Y-109405219D01*
X177873661Y-109326178D01*
X177861842Y-109230689D01*
X177864968Y-109133131D01*
X177883505Y-109047882D01*
X177888093Y-109035956D01*
X177944491Y-108943174D01*
X178030071Y-108861514D01*
X178141242Y-108793579D01*
X178274410Y-108741969D01*
X178306626Y-108732979D01*
X178393783Y-108717372D01*
X178503604Y-108708240D01*
X178625515Y-108705580D01*
X178748940Y-108709389D01*
X178748940Y-108709389D01*
G37*
X178748940Y-108709389D02*
X178863301Y-108719665D01*
X178944007Y-108733156D01*
X179007672Y-108749968D01*
X179078213Y-108773092D01*
X179148289Y-108799514D01*
X179210559Y-108826219D01*
X179257682Y-108850191D01*
X179282316Y-108868417D01*
X179284267Y-108872899D01*
X179275240Y-108889380D01*
X179252547Y-108923142D01*
X179222762Y-108965094D01*
X179192465Y-109006147D01*
X179168231Y-109037211D01*
X179156706Y-109049200D01*
X179141268Y-109043413D01*
X179102979Y-109028299D01*
X179054353Y-109008827D01*
X178982082Y-108983975D01*
X178897161Y-108960788D01*
X178833741Y-108947285D01*
X178746029Y-108937118D01*
X178642385Y-108933230D01*
X178532715Y-108935191D01*
X178426922Y-108942571D01*
X178334912Y-108954939D01*
X178266589Y-108971867D01*
X178266473Y-108971909D01*
X178184660Y-109013573D01*
X178126155Y-109068796D01*
X178093534Y-109132708D01*
X178089368Y-109200439D01*
X178113058Y-109262222D01*
X178141527Y-109298487D01*
X178179288Y-109327066D01*
X178231298Y-109349617D01*
X178302511Y-109367794D01*
X178397884Y-109383255D01*
X178516505Y-109397051D01*
X178697211Y-109417031D01*
X178848160Y-109436854D01*
X178973446Y-109457427D01*
X179077161Y-109479656D01*
X179163400Y-109504444D01*
X179236255Y-109532700D01*
X179299820Y-109565327D01*
X179313222Y-109573340D01*
X179385705Y-109636537D01*
X179437620Y-109720498D01*
X179468874Y-109819011D01*
X179479372Y-109925862D01*
X179469023Y-110034839D01*
X179437734Y-110139730D01*
X179385411Y-110234323D01*
X179324137Y-110302158D01*
X179224684Y-110369807D01*
X179099742Y-110423144D01*
X178954953Y-110461193D01*
X178795957Y-110482975D01*
X178628398Y-110487514D01*
X178457917Y-110473833D01*
X178392584Y-110463481D01*
X178211052Y-110420502D01*
X178054388Y-110362410D01*
X178014267Y-110342938D01*
X177953635Y-110311251D01*
X177919362Y-110288353D01*
X177908210Y-110266575D01*
X177916937Y-110238248D01*
X177942304Y-110195706D01*
X177948117Y-110186382D01*
X177979091Y-110140220D01*
X178004682Y-110108572D01*
X178017361Y-110099067D01*
X178039659Y-110106212D01*
X178081468Y-110124644D01*
X178118053Y-110142508D01*
X178261649Y-110200772D01*
X178422807Y-110238014D01*
X178606134Y-110255195D01*
X178666200Y-110256580D01*
X178830597Y-110250108D01*
X178966193Y-110227271D01*
X179074086Y-110187614D01*
X179155373Y-110130680D01*
X179211150Y-110056014D01*
X179225420Y-110024122D01*
X179242466Y-109974406D01*
X179246099Y-109938492D01*
X179236505Y-109899163D01*
X179227043Y-109873461D01*
X179200662Y-109820105D01*
X179163964Y-109776675D01*
X179113302Y-109741864D01*
X179045027Y-109714367D01*
X178955494Y-109692877D01*
X178841054Y-109676087D01*
X178698060Y-109662693D01*
X178623867Y-109657454D01*
X178445791Y-109642800D01*
X178298232Y-109623522D01*
X178178026Y-109598518D01*
X178082006Y-109566685D01*
X178007007Y-109526919D01*
X177949863Y-109478118D01*
X177907408Y-109419178D01*
X177899967Y-109405219D01*
X177873661Y-109326178D01*
X177861842Y-109230689D01*
X177864968Y-109133131D01*
X177883505Y-109047882D01*
X177888093Y-109035956D01*
X177944491Y-108943174D01*
X178030071Y-108861514D01*
X178141242Y-108793579D01*
X178274410Y-108741969D01*
X178306626Y-108732979D01*
X178393783Y-108717372D01*
X178503604Y-108708240D01*
X178625515Y-108705580D01*
X178748940Y-108709389D01*
G36*
X180723056Y-108744965D02*
X180853578Y-108772299D01*
X180971128Y-108820913D01*
X181076293Y-108887530D01*
X181204532Y-109001624D01*
X181304395Y-109134202D01*
X181375873Y-109285248D01*
X181418957Y-109454748D01*
X181426761Y-109513028D01*
X181438745Y-109624933D01*
X179928381Y-109624933D01*
X179939103Y-109705366D01*
X179972743Y-109847026D01*
X180032368Y-109976958D01*
X180114334Y-110089989D01*
X180214999Y-110180940D01*
X180313480Y-110237434D01*
X180426998Y-110271064D01*
X180555049Y-110281944D01*
X180687777Y-110270824D01*
X180815325Y-110238452D01*
X180917970Y-110191517D01*
X180993311Y-110136563D01*
X181069673Y-110062903D01*
X181134776Y-109982980D01*
X181155763Y-109950612D01*
X181180667Y-109915013D01*
X181201137Y-109896577D01*
X181204130Y-109895867D01*
X181230877Y-109904386D01*
X181270992Y-109925497D01*
X181313989Y-109952526D01*
X181349380Y-109978800D01*
X181366678Y-109997646D01*
X181367066Y-109999544D01*
X181356623Y-110028456D01*
X181329059Y-110074652D01*
X181290028Y-110130346D01*
X181245180Y-110187752D01*
X181200168Y-110239087D01*
X181174944Y-110264185D01*
X181066962Y-110349296D01*
X180949616Y-110411201D01*
X180816799Y-110454650D01*
X180679709Y-110479311D01*
X180537860Y-110486472D01*
X180404232Y-110475944D01*
X180335905Y-110461736D01*
X180196072Y-110409430D01*
X180067553Y-110329498D01*
X179968795Y-110243154D01*
X179864083Y-110116978D01*
X179787060Y-109976089D01*
X179737436Y-109824861D01*
X179714923Y-109667667D01*
X179719232Y-109508882D01*
X179737299Y-109417500D01*
X179961613Y-109417500D01*
X179968610Y-109423260D01*
X179991372Y-109427949D01*
X180032542Y-109431657D01*
X180094765Y-109434475D01*
X180180682Y-109436494D01*
X180292940Y-109437804D01*
X180434179Y-109438496D01*
X180578302Y-109438666D01*
X181195003Y-109438666D01*
X181177956Y-109375166D01*
X181131029Y-109261773D01*
X181054225Y-109154158D01*
X181002937Y-109101750D01*
X180892194Y-109021256D01*
X180767888Y-108967907D01*
X180635685Y-108941634D01*
X180501246Y-108942367D01*
X180370238Y-108970038D01*
X180248323Y-109024578D01*
X180141164Y-109105917D01*
X180134644Y-109112331D01*
X180095282Y-109158997D01*
X180053410Y-109220150D01*
X180014190Y-109286687D01*
X179982784Y-109349504D01*
X179964355Y-109399497D01*
X179961613Y-109417500D01*
X179737299Y-109417500D01*
X179750076Y-109352878D01*
X179807165Y-109204030D01*
X179890212Y-109066711D01*
X179998928Y-108945294D01*
X180057625Y-108895874D01*
X180167849Y-108823282D01*
X180282033Y-108774270D01*
X180408638Y-108746212D01*
X180556129Y-108736477D01*
X180571200Y-108736410D01*
X180723056Y-108744965D01*
X180723056Y-108744965D01*
G37*
X180723056Y-108744965D02*
X180853578Y-108772299D01*
X180971128Y-108820913D01*
X181076293Y-108887530D01*
X181204532Y-109001624D01*
X181304395Y-109134202D01*
X181375873Y-109285248D01*
X181418957Y-109454748D01*
X181426761Y-109513028D01*
X181438745Y-109624933D01*
X179928381Y-109624933D01*
X179939103Y-109705366D01*
X179972743Y-109847026D01*
X180032368Y-109976958D01*
X180114334Y-110089989D01*
X180214999Y-110180940D01*
X180313480Y-110237434D01*
X180426998Y-110271064D01*
X180555049Y-110281944D01*
X180687777Y-110270824D01*
X180815325Y-110238452D01*
X180917970Y-110191517D01*
X180993311Y-110136563D01*
X181069673Y-110062903D01*
X181134776Y-109982980D01*
X181155763Y-109950612D01*
X181180667Y-109915013D01*
X181201137Y-109896577D01*
X181204130Y-109895867D01*
X181230877Y-109904386D01*
X181270992Y-109925497D01*
X181313989Y-109952526D01*
X181349380Y-109978800D01*
X181366678Y-109997646D01*
X181367066Y-109999544D01*
X181356623Y-110028456D01*
X181329059Y-110074652D01*
X181290028Y-110130346D01*
X181245180Y-110187752D01*
X181200168Y-110239087D01*
X181174944Y-110264185D01*
X181066962Y-110349296D01*
X180949616Y-110411201D01*
X180816799Y-110454650D01*
X180679709Y-110479311D01*
X180537860Y-110486472D01*
X180404232Y-110475944D01*
X180335905Y-110461736D01*
X180196072Y-110409430D01*
X180067553Y-110329498D01*
X179968795Y-110243154D01*
X179864083Y-110116978D01*
X179787060Y-109976089D01*
X179737436Y-109824861D01*
X179714923Y-109667667D01*
X179719232Y-109508882D01*
X179737299Y-109417500D01*
X179961613Y-109417500D01*
X179968610Y-109423260D01*
X179991372Y-109427949D01*
X180032542Y-109431657D01*
X180094765Y-109434475D01*
X180180682Y-109436494D01*
X180292940Y-109437804D01*
X180434179Y-109438496D01*
X180578302Y-109438666D01*
X181195003Y-109438666D01*
X181177956Y-109375166D01*
X181131029Y-109261773D01*
X181054225Y-109154158D01*
X181002937Y-109101750D01*
X180892194Y-109021256D01*
X180767888Y-108967907D01*
X180635685Y-108941634D01*
X180501246Y-108942367D01*
X180370238Y-108970038D01*
X180248323Y-109024578D01*
X180141164Y-109105917D01*
X180134644Y-109112331D01*
X180095282Y-109158997D01*
X180053410Y-109220150D01*
X180014190Y-109286687D01*
X179982784Y-109349504D01*
X179964355Y-109399497D01*
X179961613Y-109417500D01*
X179737299Y-109417500D01*
X179750076Y-109352878D01*
X179807165Y-109204030D01*
X179890212Y-109066711D01*
X179998928Y-108945294D01*
X180057625Y-108895874D01*
X180167849Y-108823282D01*
X180282033Y-108774270D01*
X180408638Y-108746212D01*
X180556129Y-108736477D01*
X180571200Y-108736410D01*
X180723056Y-108744965D01*
G36*
X184638724Y-108708937D02*
X184801839Y-108733930D01*
X184954547Y-108776696D01*
X185062766Y-108822774D01*
X185107687Y-108847663D01*
X185136833Y-108867925D01*
X185143091Y-108875918D01*
X185132807Y-108894367D01*
X185106164Y-108929900D01*
X185074769Y-108967913D01*
X185006558Y-109047492D01*
X184931321Y-109015242D01*
X184814331Y-108975882D01*
X184680933Y-108948856D01*
X184539173Y-108934305D01*
X184397097Y-108932366D01*
X184262750Y-108943180D01*
X184144178Y-108966885D01*
X184056119Y-109000107D01*
X183991392Y-109048879D01*
X183953812Y-109110570D01*
X183943109Y-109178217D01*
X183959013Y-109244863D01*
X184001252Y-109303544D01*
X184069555Y-109347302D01*
X184069628Y-109347332D01*
X184103816Y-109356495D01*
X184165253Y-109367931D01*
X184247479Y-109380637D01*
X184344035Y-109393612D01*
X184443551Y-109405319D01*
X184632115Y-109428031D01*
X184790002Y-109452050D01*
X184920400Y-109478531D01*
X185026498Y-109508630D01*
X185111486Y-109543500D01*
X185178551Y-109584299D01*
X185230883Y-109632180D01*
X185271671Y-109688299D01*
X185283548Y-109709600D01*
X185307714Y-109759101D01*
X185321671Y-109800859D01*
X185327575Y-109846858D01*
X185327580Y-109909084D01*
X185326187Y-109946667D01*
X185309316Y-110077606D01*
X185269379Y-110187549D01*
X185204477Y-110278641D01*
X185112708Y-110353030D01*
X184992175Y-110412860D01*
X184880820Y-110449732D01*
X184819082Y-110461564D01*
X184732889Y-110470918D01*
X184631588Y-110477472D01*
X184524523Y-110480900D01*
X184421037Y-110480879D01*
X184330477Y-110477085D01*
X184271792Y-110470834D01*
X184195638Y-110456550D01*
X184114867Y-110437938D01*
X184078070Y-110428019D01*
X184025145Y-110409939D01*
X183962104Y-110384460D01*
X183896462Y-110355163D01*
X183835731Y-110325628D01*
X183787423Y-110299435D01*
X183759052Y-110280165D01*
X183754667Y-110273903D01*
X183763631Y-110251222D01*
X183786080Y-110213252D01*
X183815343Y-110169640D01*
X183844754Y-110130033D01*
X183867642Y-110104076D01*
X183875528Y-110099067D01*
X183898274Y-110106223D01*
X183940412Y-110124680D01*
X183976986Y-110142508D01*
X184106228Y-110194629D01*
X184254109Y-110232085D01*
X184411104Y-110253996D01*
X184567685Y-110259477D01*
X184714325Y-110247649D01*
X184829933Y-110221471D01*
X184909251Y-110193059D01*
X184966299Y-110163331D01*
X185012158Y-110125089D01*
X185054446Y-110075616D01*
X185086747Y-110008557D01*
X185093675Y-109931513D01*
X185075523Y-109856592D01*
X185048049Y-109811891D01*
X185011518Y-109773574D01*
X184970547Y-109743029D01*
X184920462Y-109718972D01*
X184856588Y-109700120D01*
X184774247Y-109685190D01*
X184668766Y-109672898D01*
X184535467Y-109661961D01*
X184490375Y-109658821D01*
X184328132Y-109646285D01*
X184195404Y-109632078D01*
X184087844Y-109615088D01*
X184001105Y-109594204D01*
X183930840Y-109568315D01*
X183872702Y-109536309D01*
X183822343Y-109497074D01*
X183809014Y-109484613D01*
X183751620Y-109406861D01*
X183719115Y-109313729D01*
X183710581Y-109211767D01*
X183725097Y-109107523D01*
X183761744Y-109007545D01*
X183819602Y-108918383D01*
X183897753Y-108846584D01*
X183898685Y-108845941D01*
X184014562Y-108784050D01*
X184153123Y-108739272D01*
X184307748Y-108711739D01*
X184471822Y-108701584D01*
X184638724Y-108708937D01*
X184638724Y-108708937D01*
G37*
X184638724Y-108708937D02*
X184801839Y-108733930D01*
X184954547Y-108776696D01*
X185062766Y-108822774D01*
X185107687Y-108847663D01*
X185136833Y-108867925D01*
X185143091Y-108875918D01*
X185132807Y-108894367D01*
X185106164Y-108929900D01*
X185074769Y-108967913D01*
X185006558Y-109047492D01*
X184931321Y-109015242D01*
X184814331Y-108975882D01*
X184680933Y-108948856D01*
X184539173Y-108934305D01*
X184397097Y-108932366D01*
X184262750Y-108943180D01*
X184144178Y-108966885D01*
X184056119Y-109000107D01*
X183991392Y-109048879D01*
X183953812Y-109110570D01*
X183943109Y-109178217D01*
X183959013Y-109244863D01*
X184001252Y-109303544D01*
X184069555Y-109347302D01*
X184069628Y-109347332D01*
X184103816Y-109356495D01*
X184165253Y-109367931D01*
X184247479Y-109380637D01*
X184344035Y-109393612D01*
X184443551Y-109405319D01*
X184632115Y-109428031D01*
X184790002Y-109452050D01*
X184920400Y-109478531D01*
X185026498Y-109508630D01*
X185111486Y-109543500D01*
X185178551Y-109584299D01*
X185230883Y-109632180D01*
X185271671Y-109688299D01*
X185283548Y-109709600D01*
X185307714Y-109759101D01*
X185321671Y-109800859D01*
X185327575Y-109846858D01*
X185327580Y-109909084D01*
X185326187Y-109946667D01*
X185309316Y-110077606D01*
X185269379Y-110187549D01*
X185204477Y-110278641D01*
X185112708Y-110353030D01*
X184992175Y-110412860D01*
X184880820Y-110449732D01*
X184819082Y-110461564D01*
X184732889Y-110470918D01*
X184631588Y-110477472D01*
X184524523Y-110480900D01*
X184421037Y-110480879D01*
X184330477Y-110477085D01*
X184271792Y-110470834D01*
X184195638Y-110456550D01*
X184114867Y-110437938D01*
X184078070Y-110428019D01*
X184025145Y-110409939D01*
X183962104Y-110384460D01*
X183896462Y-110355163D01*
X183835731Y-110325628D01*
X183787423Y-110299435D01*
X183759052Y-110280165D01*
X183754667Y-110273903D01*
X183763631Y-110251222D01*
X183786080Y-110213252D01*
X183815343Y-110169640D01*
X183844754Y-110130033D01*
X183867642Y-110104076D01*
X183875528Y-110099067D01*
X183898274Y-110106223D01*
X183940412Y-110124680D01*
X183976986Y-110142508D01*
X184106228Y-110194629D01*
X184254109Y-110232085D01*
X184411104Y-110253996D01*
X184567685Y-110259477D01*
X184714325Y-110247649D01*
X184829933Y-110221471D01*
X184909251Y-110193059D01*
X184966299Y-110163331D01*
X185012158Y-110125089D01*
X185054446Y-110075616D01*
X185086747Y-110008557D01*
X185093675Y-109931513D01*
X185075523Y-109856592D01*
X185048049Y-109811891D01*
X185011518Y-109773574D01*
X184970547Y-109743029D01*
X184920462Y-109718972D01*
X184856588Y-109700120D01*
X184774247Y-109685190D01*
X184668766Y-109672898D01*
X184535467Y-109661961D01*
X184490375Y-109658821D01*
X184328132Y-109646285D01*
X184195404Y-109632078D01*
X184087844Y-109615088D01*
X184001105Y-109594204D01*
X183930840Y-109568315D01*
X183872702Y-109536309D01*
X183822343Y-109497074D01*
X183809014Y-109484613D01*
X183751620Y-109406861D01*
X183719115Y-109313729D01*
X183710581Y-109211767D01*
X183725097Y-109107523D01*
X183761744Y-109007545D01*
X183819602Y-108918383D01*
X183897753Y-108846584D01*
X183898685Y-108845941D01*
X184014562Y-108784050D01*
X184153123Y-108739272D01*
X184307748Y-108711739D01*
X184471822Y-108701584D01*
X184638724Y-108708937D01*
G36*
X182632892Y-108699784D02*
X182729629Y-108712964D01*
X182762699Y-108718677D01*
X182925509Y-108762094D01*
X183065304Y-108830302D01*
X183182233Y-108923443D01*
X183276442Y-109041664D01*
X183348081Y-109185108D01*
X183392849Y-109333542D01*
X183401846Y-109378607D01*
X183408924Y-109428532D01*
X183414307Y-109487909D01*
X183418217Y-109561329D01*
X183420879Y-109653383D01*
X183422514Y-109768663D01*
X183423347Y-109911762D01*
X183423480Y-109963600D01*
X183424467Y-110463133D01*
X183301700Y-110468108D01*
X183178933Y-110473084D01*
X183178933Y-109980384D01*
X183178272Y-109808191D01*
X183175934Y-109665818D01*
X183171383Y-109549238D01*
X183164087Y-109454424D01*
X183153510Y-109377348D01*
X183139120Y-109313984D01*
X183120381Y-109260304D01*
X183096761Y-109212281D01*
X183071702Y-109171787D01*
X182996047Y-109082437D01*
X182903060Y-109016762D01*
X182790166Y-108973765D01*
X182654791Y-108952451D01*
X182501675Y-108951446D01*
X182355321Y-108969219D01*
X182234641Y-109007708D01*
X182137404Y-109068442D01*
X182061378Y-109152947D01*
X182004332Y-109262751D01*
X181990389Y-109301449D01*
X181979933Y-109335244D01*
X181971552Y-109369266D01*
X181964950Y-109407827D01*
X181959835Y-109455238D01*
X181955912Y-109515810D01*
X181952887Y-109593854D01*
X181950467Y-109693683D01*
X181948357Y-109819606D01*
X181946690Y-109942433D01*
X181939896Y-110471600D01*
X181705733Y-110471600D01*
X181706027Y-109959367D01*
X181706623Y-109789235D01*
X181708539Y-109648560D01*
X181712295Y-109532939D01*
X181718405Y-109437971D01*
X181727388Y-109359253D01*
X181739761Y-109292386D01*
X181756039Y-109232967D01*
X181776742Y-109176595D01*
X181802384Y-109118869D01*
X181805529Y-109112246D01*
X181884668Y-108984009D01*
X181988330Y-108878836D01*
X182115740Y-108797277D01*
X182266121Y-108739882D01*
X182361273Y-108718288D01*
X182463685Y-108702461D01*
X182549235Y-108696288D01*
X182632892Y-108699784D01*
X182632892Y-108699784D01*
G37*
X182632892Y-108699784D02*
X182729629Y-108712964D01*
X182762699Y-108718677D01*
X182925509Y-108762094D01*
X183065304Y-108830302D01*
X183182233Y-108923443D01*
X183276442Y-109041664D01*
X183348081Y-109185108D01*
X183392849Y-109333542D01*
X183401846Y-109378607D01*
X183408924Y-109428532D01*
X183414307Y-109487909D01*
X183418217Y-109561329D01*
X183420879Y-109653383D01*
X183422514Y-109768663D01*
X183423347Y-109911762D01*
X183423480Y-109963600D01*
X183424467Y-110463133D01*
X183301700Y-110468108D01*
X183178933Y-110473084D01*
X183178933Y-109980384D01*
X183178272Y-109808191D01*
X183175934Y-109665818D01*
X183171383Y-109549238D01*
X183164087Y-109454424D01*
X183153510Y-109377348D01*
X183139120Y-109313984D01*
X183120381Y-109260304D01*
X183096761Y-109212281D01*
X183071702Y-109171787D01*
X182996047Y-109082437D01*
X182903060Y-109016762D01*
X182790166Y-108973765D01*
X182654791Y-108952451D01*
X182501675Y-108951446D01*
X182355321Y-108969219D01*
X182234641Y-109007708D01*
X182137404Y-109068442D01*
X182061378Y-109152947D01*
X182004332Y-109262751D01*
X181990389Y-109301449D01*
X181979933Y-109335244D01*
X181971552Y-109369266D01*
X181964950Y-109407827D01*
X181959835Y-109455238D01*
X181955912Y-109515810D01*
X181952887Y-109593854D01*
X181950467Y-109693683D01*
X181948357Y-109819606D01*
X181946690Y-109942433D01*
X181939896Y-110471600D01*
X181705733Y-110471600D01*
X181706027Y-109959367D01*
X181706623Y-109789235D01*
X181708539Y-109648560D01*
X181712295Y-109532939D01*
X181718405Y-109437971D01*
X181727388Y-109359253D01*
X181739761Y-109292386D01*
X181756039Y-109232967D01*
X181776742Y-109176595D01*
X181802384Y-109118869D01*
X181805529Y-109112246D01*
X181884668Y-108984009D01*
X181988330Y-108878836D01*
X182115740Y-108797277D01*
X182266121Y-108739882D01*
X182361273Y-108718288D01*
X182463685Y-108702461D01*
X182549235Y-108696288D01*
X182632892Y-108699784D01*
G36*
X185854400Y-108846544D02*
X185854517Y-109079281D01*
X185854896Y-109280390D01*
X185855581Y-109452107D01*
X185856614Y-109596670D01*
X185858039Y-109716317D01*
X185859899Y-109813284D01*
X185862236Y-109889810D01*
X185865094Y-109948131D01*
X185868515Y-109990484D01*
X185872543Y-110019107D01*
X185877221Y-110036238D01*
X185877278Y-110036375D01*
X185917521Y-110099187D01*
X185978906Y-110157978D01*
X186049320Y-110202325D01*
X186086770Y-110216582D01*
X186122973Y-110221898D01*
X186187813Y-110226528D01*
X186276065Y-110230270D01*
X186382504Y-110232926D01*
X186501904Y-110234296D01*
X186553674Y-110234439D01*
X186956614Y-110234533D01*
X186946600Y-110463133D01*
X186582533Y-110465043D01*
X186466093Y-110465073D01*
X186353133Y-110464044D01*
X186250905Y-110462103D01*
X186166663Y-110459393D01*
X186107660Y-110456062D01*
X186099933Y-110455374D01*
X185967589Y-110427028D01*
X185853056Y-110369993D01*
X185757334Y-110284980D01*
X185681421Y-110172697D01*
X185670043Y-110149867D01*
X185625800Y-110056733D01*
X185616440Y-107711467D01*
X185854400Y-107711467D01*
X185854400Y-108846544D01*
X185854400Y-108846544D01*
G37*
X185854400Y-108846544D02*
X185854517Y-109079281D01*
X185854896Y-109280390D01*
X185855581Y-109452107D01*
X185856614Y-109596670D01*
X185858039Y-109716317D01*
X185859899Y-109813284D01*
X185862236Y-109889810D01*
X185865094Y-109948131D01*
X185868515Y-109990484D01*
X185872543Y-110019107D01*
X185877221Y-110036238D01*
X185877278Y-110036375D01*
X185917521Y-110099187D01*
X185978906Y-110157978D01*
X186049320Y-110202325D01*
X186086770Y-110216582D01*
X186122973Y-110221898D01*
X186187813Y-110226528D01*
X186276065Y-110230270D01*
X186382504Y-110232926D01*
X186501904Y-110234296D01*
X186553674Y-110234439D01*
X186956614Y-110234533D01*
X186946600Y-110463133D01*
X186582533Y-110465043D01*
X186466093Y-110465073D01*
X186353133Y-110464044D01*
X186250905Y-110462103D01*
X186166663Y-110459393D01*
X186107660Y-110456062D01*
X186099933Y-110455374D01*
X185967589Y-110427028D01*
X185853056Y-110369993D01*
X185757334Y-110284980D01*
X185681421Y-110172697D01*
X185670043Y-110149867D01*
X185625800Y-110056733D01*
X185616440Y-107711467D01*
X185854400Y-107711467D01*
X185854400Y-108846544D01*
G36*
X206326800Y-92289200D02*
X206326800Y-93025800D01*
X202923200Y-93025800D01*
X202923200Y-92289200D01*
X206326800Y-92289200D01*
X206326800Y-92289200D01*
G37*
X206326800Y-92289200D02*
X206326800Y-93025800D01*
X202923200Y-93025800D01*
X202923200Y-92289200D01*
X206326800Y-92289200D01*
G36*
X206326800Y-89952400D02*
X206326800Y-90689000D01*
X202923200Y-90689000D01*
X202923200Y-89952400D01*
X206326800Y-89952400D01*
X206326800Y-89952400D01*
G37*
X206326800Y-89952400D02*
X206326800Y-90689000D01*
X202923200Y-90689000D01*
X202923200Y-89952400D01*
X206326800Y-89952400D01*
G36*
X206326800Y-88809400D02*
X206326800Y-89546000D01*
X204066200Y-89546000D01*
X204066200Y-88809400D01*
X206326800Y-88809400D01*
X206326800Y-88809400D01*
G37*
X206326800Y-88809400D02*
X206326800Y-89546000D01*
X204066200Y-89546000D01*
X204066200Y-88809400D01*
X206326800Y-88809400D01*
G36*
X206326800Y-87641000D02*
X206326800Y-88377600D01*
X204066200Y-88377600D01*
X204066200Y-87641000D01*
X206326800Y-87641000D01*
X206326800Y-87641000D01*
G37*
X206326800Y-87641000D02*
X206326800Y-88377600D01*
X204066200Y-88377600D01*
X204066200Y-87641000D01*
X206326800Y-87641000D01*
G36*
X205260000Y-91120800D02*
X205260000Y-91857400D01*
X202923200Y-91857400D01*
X202923200Y-91120800D01*
X205260000Y-91120800D01*
X205260000Y-91120800D01*
G37*
X205260000Y-91120800D02*
X205260000Y-91857400D01*
X202923200Y-91857400D01*
X202923200Y-91120800D01*
X205260000Y-91120800D01*
G36*
X203659800Y-88809400D02*
X203659800Y-89160767D01*
X203658637Y-89289554D01*
X203655447Y-89399665D01*
X203650679Y-89481364D01*
X203644779Y-89524910D01*
X203642866Y-89529067D01*
X203612591Y-89535218D01*
X203541257Y-89540371D01*
X203438604Y-89544078D01*
X203314370Y-89545892D01*
X203274566Y-89546000D01*
X202923200Y-89546000D01*
X202923200Y-88809400D01*
X203659800Y-88809400D01*
X203659800Y-88809400D01*
G37*
X203659800Y-88809400D02*
X203659800Y-89160767D01*
X203658637Y-89289554D01*
X203655447Y-89399665D01*
X203650679Y-89481364D01*
X203644779Y-89524910D01*
X203642866Y-89529067D01*
X203612591Y-89535218D01*
X203541257Y-89540371D01*
X203438604Y-89544078D01*
X203314370Y-89545892D01*
X203274566Y-89546000D01*
X202923200Y-89546000D01*
X202923200Y-88809400D01*
X203659800Y-88809400D01*
G36*
X203659800Y-86574200D02*
X203659800Y-88377600D01*
X202923200Y-88377600D01*
X202923200Y-86574200D01*
X203659800Y-86574200D01*
X203659800Y-86574200D01*
G37*
X203659800Y-86574200D02*
X203659800Y-88377600D01*
X202923200Y-88377600D01*
X202923200Y-86574200D01*
X203659800Y-86574200D01*
D17*
X197638478Y-108242426D02*
X201273006Y-104607898D01*
X201273006Y-104607898D02*
X199392102Y-102726994D01*
X199392102Y-102726994D02*
X195757574Y-106361522D01*
X195757574Y-106361522D02*
X197638478Y-108242426D01*
X196740452Y-109140452D02*
X195800000Y-110080904D01*
X195800000Y-110080904D02*
X194859548Y-109140452D01*
D16*
X221850000Y-123600000D02*
X217850000Y-123600000D01*
X223350000Y-129100000D02*
X223350000Y-125100000D01*
X216350000Y-129100000D02*
X216350000Y-125100000D01*
X221850000Y-130600000D02*
X217850000Y-130600000D01*
X223350000Y-129100000D02*
X221850000Y-129100000D01*
X221850000Y-125100000D02*
X221850000Y-123600000D01*
X221850000Y-125100000D02*
X223350000Y-125100000D01*
X221850000Y-123600000D02*
X221850000Y-125100000D01*
X217850000Y-125100000D02*
X216350000Y-125100000D01*
X217850000Y-125100000D02*
X217850000Y-123600000D01*
X216350000Y-125100000D02*
X217850000Y-125100000D01*
X216350000Y-129100000D02*
X217850000Y-129100000D01*
X217850000Y-130600000D02*
X217850000Y-129100000D01*
X223350000Y-129100000D02*
X221850000Y-129100000D01*
X221850000Y-129100000D02*
X221850000Y-130600000D01*
X221650000Y-129900000D02*
G75*
G03X221650000Y-129900000I-500000J0D01*
G01*
X142891669Y-67541667D02*
X142891669Y-68108333D01*
X142925002Y-68175000D01*
X142958335Y-68208333D01*
X143025002Y-68241667D01*
X143158335Y-68241667D01*
X143225002Y-68208333D01*
X143258335Y-68175000D01*
X143291669Y-68108333D01*
X143291669Y-67541667D01*
X143558335Y-67541667D02*
X143991668Y-67541667D01*
X143758335Y-67808333D01*
X143858335Y-67808333D01*
X143925002Y-67841667D01*
X143958335Y-67875000D01*
X143991668Y-67941667D01*
X143991668Y-68108333D01*
X143958335Y-68175000D01*
X143925002Y-68208333D01*
X143858335Y-68241667D01*
X143658335Y-68241667D01*
X143591668Y-68208333D01*
X143558335Y-68175000D01*
X144791668Y-68041667D02*
X145125002Y-68041667D01*
X144725002Y-68241667D02*
X144958335Y-67541667D01*
X145191668Y-68241667D01*
X145425002Y-68241667D02*
X145425002Y-67775000D01*
X145425002Y-67908333D02*
X145458335Y-67841667D01*
X145491668Y-67808333D01*
X145558335Y-67775000D01*
X145625002Y-67775000D01*
X146158335Y-68241667D02*
X146158335Y-67541667D01*
X146158335Y-68208333D02*
X146091668Y-68241667D01*
X145958335Y-68241667D01*
X145891668Y-68208333D01*
X145858335Y-68175000D01*
X145825001Y-68108333D01*
X145825001Y-67908333D01*
X145858335Y-67841667D01*
X145891668Y-67808333D01*
X145958335Y-67775000D01*
X146091668Y-67775000D01*
X146158335Y-67808333D01*
X146791668Y-67775000D02*
X146791668Y-68241667D01*
X146491668Y-67775000D02*
X146491668Y-68141667D01*
X146525001Y-68208333D01*
X146591668Y-68241667D01*
X146691668Y-68241667D01*
X146758334Y-68208333D01*
X146791668Y-68175000D01*
X147125001Y-68241667D02*
X147125001Y-67775000D01*
X147125001Y-67541667D02*
X147091667Y-67575000D01*
X147125001Y-67608333D01*
X147158334Y-67575000D01*
X147125001Y-67541667D01*
X147125001Y-67608333D01*
X147458334Y-67775000D02*
X147458334Y-68241667D01*
X147458334Y-67841667D02*
X147491667Y-67808333D01*
X147558334Y-67775000D01*
X147658334Y-67775000D01*
X147725000Y-67808333D01*
X147758334Y-67875000D01*
X147758334Y-68241667D01*
X148191667Y-68241667D02*
X148125000Y-68208333D01*
X148091667Y-68175000D01*
X148058333Y-68108333D01*
X148058333Y-67908333D01*
X148091667Y-67841667D01*
X148125000Y-67808333D01*
X148191667Y-67775000D01*
X148291667Y-67775000D01*
X148358333Y-67808333D01*
X148391667Y-67841667D01*
X148425000Y-67908333D01*
X148425000Y-68108333D01*
X148391667Y-68175000D01*
X148358333Y-68208333D01*
X148291667Y-68241667D01*
X148191667Y-68241667D01*
X148558333Y-68308333D02*
X149091666Y-68308333D01*
X149258333Y-68241667D02*
X149258333Y-67541667D01*
X149658333Y-68241667D01*
X149658333Y-67541667D01*
X150291666Y-68241667D02*
X150291666Y-67875000D01*
X150258332Y-67808333D01*
X150191666Y-67775000D01*
X150058332Y-67775000D01*
X149991666Y-67808333D01*
X150291666Y-68208333D02*
X150224999Y-68241667D01*
X150058332Y-68241667D01*
X149991666Y-68208333D01*
X149958332Y-68141667D01*
X149958332Y-68075000D01*
X149991666Y-68008333D01*
X150058332Y-67975000D01*
X150224999Y-67975000D01*
X150291666Y-67941667D01*
X150624999Y-67775000D02*
X150624999Y-68241667D01*
X150624999Y-67841667D02*
X150658332Y-67808333D01*
X150724999Y-67775000D01*
X150824999Y-67775000D01*
X150891665Y-67808333D01*
X150924999Y-67875000D01*
X150924999Y-68241667D01*
X151358332Y-68241667D02*
X151291665Y-68208333D01*
X151258332Y-68175000D01*
X151224998Y-68108333D01*
X151224998Y-67908333D01*
X151258332Y-67841667D01*
X151291665Y-67808333D01*
X151358332Y-67775000D01*
X151458332Y-67775000D01*
X151524998Y-67808333D01*
X151558332Y-67841667D01*
X151591665Y-67908333D01*
X151591665Y-68108333D01*
X151558332Y-68175000D01*
X151524998Y-68208333D01*
X151458332Y-68241667D01*
X151358332Y-68241667D01*
X167179333Y-84211333D02*
X167279333Y-84244667D01*
X167446000Y-84244667D01*
X167512667Y-84211333D01*
X167546000Y-84178000D01*
X167579333Y-84111333D01*
X167579333Y-84044667D01*
X167546000Y-83978000D01*
X167512667Y-83944667D01*
X167446000Y-83911333D01*
X167312667Y-83878000D01*
X167246000Y-83844667D01*
X167212667Y-83811333D01*
X167179333Y-83744667D01*
X167179333Y-83678000D01*
X167212667Y-83611333D01*
X167246000Y-83578000D01*
X167312667Y-83544667D01*
X167479333Y-83544667D01*
X167579333Y-83578000D01*
X167879334Y-84244667D02*
X167879334Y-83544667D01*
X168279334Y-84244667D01*
X168279334Y-83544667D01*
X168979333Y-83578000D02*
X168912667Y-83544667D01*
X168812667Y-83544667D01*
X168712667Y-83578000D01*
X168646000Y-83644667D01*
X168612667Y-83711333D01*
X168579333Y-83844667D01*
X168579333Y-83944667D01*
X168612667Y-84078000D01*
X168646000Y-84144667D01*
X168712667Y-84211333D01*
X168812667Y-84244667D01*
X168879333Y-84244667D01*
X168979333Y-84211333D01*
X169012667Y-84178000D01*
X169012667Y-83944667D01*
X168879333Y-83944667D01*
X167562667Y-81038000D02*
X167496001Y-81004667D01*
X167396001Y-81004667D01*
X167296001Y-81038000D01*
X167229334Y-81104667D01*
X167196001Y-81171333D01*
X167162667Y-81304667D01*
X167162667Y-81404667D01*
X167196001Y-81538000D01*
X167229334Y-81604667D01*
X167296001Y-81671333D01*
X167396001Y-81704667D01*
X167462667Y-81704667D01*
X167562667Y-81671333D01*
X167596001Y-81638000D01*
X167596001Y-81404667D01*
X167462667Y-81404667D01*
X167896001Y-81704667D02*
X167896001Y-81004667D01*
X168296001Y-81704667D01*
X168296001Y-81004667D01*
X168629334Y-81704667D02*
X168629334Y-81004667D01*
X168796000Y-81004667D01*
X168896000Y-81038000D01*
X168962667Y-81104667D01*
X168996000Y-81171333D01*
X169029334Y-81304667D01*
X169029334Y-81404667D01*
X168996000Y-81538000D01*
X168962667Y-81604667D01*
X168896000Y-81671333D01*
X168796000Y-81704667D01*
X168629334Y-81704667D01*
X167596001Y-79164667D02*
X167596001Y-78464667D01*
X167596001Y-78798000D02*
X167996001Y-78798000D01*
X167996001Y-79164667D02*
X167996001Y-78464667D01*
X168229334Y-78464667D02*
X168462667Y-79164667D01*
X168696000Y-78464667D01*
X219408334Y-96241667D02*
X219408334Y-96808333D01*
X219441667Y-96875000D01*
X219475000Y-96908333D01*
X219541667Y-96941667D01*
X219675000Y-96941667D01*
X219741667Y-96908333D01*
X219775000Y-96875000D01*
X219808334Y-96808333D01*
X219808334Y-96241667D01*
X220508333Y-96941667D02*
X220108333Y-96941667D01*
X220308333Y-96941667D02*
X220308333Y-96241667D01*
X220241667Y-96341667D01*
X220175000Y-96408333D01*
X220108333Y-96441667D01*
X220941667Y-96241667D02*
X221008334Y-96241667D01*
X221075000Y-96275000D01*
X221108334Y-96308333D01*
X221141667Y-96375000D01*
X221175000Y-96508333D01*
X221175000Y-96675000D01*
X221141667Y-96808333D01*
X221108334Y-96875000D01*
X221075000Y-96908333D01*
X221008334Y-96941667D01*
X220941667Y-96941667D01*
X220875000Y-96908333D01*
X220841667Y-96875000D01*
X220808334Y-96808333D01*
X220775000Y-96675000D01*
X220775000Y-96508333D01*
X220808334Y-96375000D01*
X220841667Y-96308333D01*
X220875000Y-96275000D01*
X220941667Y-96241667D01*
X151050001Y-75791667D02*
X151483334Y-75791667D01*
X151250001Y-76058333D01*
X151350001Y-76058333D01*
X151416668Y-76091667D01*
X151450001Y-76125000D01*
X151483334Y-76191667D01*
X151483334Y-76358333D01*
X151450001Y-76425000D01*
X151416668Y-76458333D01*
X151350001Y-76491667D01*
X151150001Y-76491667D01*
X151083334Y-76458333D01*
X151050001Y-76425000D01*
X151783335Y-76425000D02*
X151816668Y-76458333D01*
X151783335Y-76491667D01*
X151750001Y-76458333D01*
X151783335Y-76425000D01*
X151783335Y-76491667D01*
X152450001Y-75791667D02*
X152116668Y-75791667D01*
X152083334Y-76125000D01*
X152116668Y-76091667D01*
X152183334Y-76058333D01*
X152350001Y-76058333D01*
X152416668Y-76091667D01*
X152450001Y-76125000D01*
X152483334Y-76191667D01*
X152483334Y-76358333D01*
X152450001Y-76425000D01*
X152416668Y-76458333D01*
X152350001Y-76491667D01*
X152183334Y-76491667D01*
X152116668Y-76458333D01*
X152083334Y-76425000D01*
X152783335Y-76491667D02*
X152783335Y-76025000D01*
X152783335Y-76091667D02*
X152816668Y-76058333D01*
X152883335Y-76025000D01*
X152983335Y-76025000D01*
X153050001Y-76058333D01*
X153083335Y-76125000D01*
X153083335Y-76491667D01*
X153083335Y-76125000D02*
X153116668Y-76058333D01*
X153183335Y-76025000D01*
X153283335Y-76025000D01*
X153350001Y-76058333D01*
X153383335Y-76125000D01*
X153383335Y-76491667D01*
X153716668Y-76491667D02*
X153716668Y-76025000D01*
X153716668Y-76091667D02*
X153750001Y-76058333D01*
X153816668Y-76025000D01*
X153916668Y-76025000D01*
X153983334Y-76058333D01*
X154016668Y-76125000D01*
X154016668Y-76491667D01*
X154016668Y-76125000D02*
X154050001Y-76058333D01*
X154116668Y-76025000D01*
X154216668Y-76025000D01*
X154283334Y-76058333D01*
X154316668Y-76125000D01*
X154316668Y-76491667D01*
X155183334Y-76025000D02*
X155183334Y-76625000D01*
X155150000Y-76691667D01*
X155083334Y-76725000D01*
X155050000Y-76725000D01*
X155183334Y-75791667D02*
X155150000Y-75825000D01*
X155183334Y-75858333D01*
X155216667Y-75825000D01*
X155183334Y-75791667D01*
X155183334Y-75858333D01*
X155816667Y-76491667D02*
X155816667Y-76125000D01*
X155783333Y-76058333D01*
X155716667Y-76025000D01*
X155583333Y-76025000D01*
X155516667Y-76058333D01*
X155816667Y-76458333D02*
X155750000Y-76491667D01*
X155583333Y-76491667D01*
X155516667Y-76458333D01*
X155483333Y-76391667D01*
X155483333Y-76325000D01*
X155516667Y-76258333D01*
X155583333Y-76225000D01*
X155750000Y-76225000D01*
X155816667Y-76191667D01*
X156450000Y-76458333D02*
X156383333Y-76491667D01*
X156250000Y-76491667D01*
X156183333Y-76458333D01*
X156150000Y-76425000D01*
X156116666Y-76358333D01*
X156116666Y-76158333D01*
X156150000Y-76091667D01*
X156183333Y-76058333D01*
X156250000Y-76025000D01*
X156383333Y-76025000D01*
X156450000Y-76058333D01*
X156750000Y-76491667D02*
X156750000Y-75791667D01*
X156816666Y-76225000D02*
X157016666Y-76491667D01*
X157016666Y-76025000D02*
X156750000Y-76291667D01*
X219058333Y-128425000D02*
X219091667Y-128325000D01*
X219091667Y-128158333D01*
X219058333Y-128091666D01*
X219025000Y-128058333D01*
X218958333Y-128025000D01*
X218891667Y-128025000D01*
X218825000Y-128058333D01*
X218791667Y-128091666D01*
X218758333Y-128158333D01*
X218725000Y-128291666D01*
X218691667Y-128358333D01*
X218658333Y-128391666D01*
X218591667Y-128425000D01*
X218525000Y-128425000D01*
X218458333Y-128391666D01*
X218425000Y-128358333D01*
X218391667Y-128291666D01*
X218391667Y-128125000D01*
X218425000Y-128025000D01*
X219091667Y-127724999D02*
X218625000Y-127724999D01*
X218391667Y-127724999D02*
X218425000Y-127758333D01*
X218458333Y-127724999D01*
X218425000Y-127691666D01*
X218391667Y-127724999D01*
X218458333Y-127724999D01*
X219091667Y-127391666D02*
X218391667Y-127391666D01*
X218391667Y-127125000D01*
X218425000Y-127058333D01*
X218458333Y-127025000D01*
X218525000Y-126991666D01*
X218625000Y-126991666D01*
X218691667Y-127025000D01*
X218725000Y-127058333D01*
X218758333Y-127125000D01*
X218758333Y-127391666D01*
X219091667Y-126691666D02*
X218391667Y-126691666D01*
X218891667Y-126458333D01*
X218391667Y-126225000D01*
X219091667Y-126225000D01*
X219091667Y-125525000D02*
X219091667Y-125925000D01*
X219091667Y-125725000D02*
X218391667Y-125725000D01*
X218491667Y-125791666D01*
X218558333Y-125858333D01*
X218591667Y-125925000D01*
M02*
