M48
;DRILL file {KiCad 4.0.2-stable} date Wednesday, February 14, 2018 'PMt' 02:08:59 PM
;FORMAT={-:-/ absolute / metric / decimal}
FMAT,2
METRIC,TZ
T1C0.300
T2C0.400
T3C0.762
T4C0.813
T5C0.890
T6C1.000
T7C1.300
T8C1.600
T9C1.700
T10C1.800
T11C2.000
T12C2.680
%
G90
G05
M71
T1
X143.25Y-81.875
X145.15Y-74.475
X146.05Y-81.875
X147.95Y-74.475
X155.45Y-81.875
X160.7Y-100.025
X161.725Y-78.775
X161.725Y-81.475
X164.375Y-95.3
X167.45Y-106.25
X172.391Y-91.843
X172.391Y-93.113
X172.391Y-94.383
X172.391Y-95.653
X176.5Y-85.75
X177.191Y-91.843
X177.191Y-93.113
X177.191Y-94.383
X177.191Y-95.653
X178.9Y-76.25
X178.9Y-78.95
X179.41Y-81.2
X179.41Y-82.15
X179.41Y-83.1
X179.6Y-85.75
X181.2Y-97.95
X181.25Y-95.05
X183.55Y-79.6
X184.15Y-102.9
X184.2Y-100.55
X184.5Y-97.95
X184.55Y-95.05
X188.55Y-62.8
X194.5Y-62.75
X207.65Y-127.1
X212.05Y-127.1
X216.65Y-123.9
X220.175Y-88.175
X220.175Y-89.875
X220.175Y-91.775
X220.375Y-93.525
X223.05Y-130.3
T2
X152.625Y-60.275
X157.55Y-81.15
X158.525Y-74.1
X158.85Y-82.9
X159.15Y-78.225
X160.825Y-68.25
X162.025Y-74.9
X163.25Y-74.45
X163.325Y-68.35
X166.375Y-85.675
X168.35Y-85.65
X172.675Y-64.075
X173.1Y-73.425
X173.525Y-67.25
X174.75Y-73.1
X177.45Y-76.4
X183.Y-60.1
X184.05Y-74.4
X185.05Y-54.75
X186.25Y-65.9
X186.4Y-56.
X187.65Y-83.3
X211.925Y-98.975
X218.925Y-89.775
X219.275Y-98.975
X221.325Y-97.875
X223.325Y-92.925
X223.525Y-99.075
X224.975Y-84.725
X226.975Y-94.425
X228.675Y-94.525
X229.075Y-93.125
X232.175Y-92.975
T3
X170.73Y-78.66
X170.73Y-81.2
X170.73Y-83.74
X173.27Y-78.66
X173.27Y-81.2
X173.27Y-83.74
T4
X145.55Y-55.18
X145.55Y-70.42
X148.09Y-55.18
X148.09Y-70.42
X150.63Y-55.18
X150.63Y-70.42
X153.17Y-55.18
X153.17Y-70.42
X155.71Y-55.18
X155.71Y-70.42
X158.25Y-55.18
X158.25Y-70.42
X160.79Y-55.18
X160.79Y-70.42
X163.33Y-55.18
X163.33Y-70.42
X165.87Y-55.18
X165.87Y-70.42
X168.41Y-55.18
X168.41Y-70.42
X170.95Y-55.18
X170.95Y-70.42
X173.49Y-55.18
X173.49Y-70.42
X176.03Y-55.18
X176.03Y-70.42
X178.57Y-55.18
X178.57Y-70.42
X181.11Y-55.18
X181.11Y-70.42
T5
X153.98Y-101.68
X154.05Y-104.22
T6
X145.486Y-86.486
X145.486Y-90.986
X157.65Y-86.3
X157.65Y-88.84
X157.65Y-91.38
X165.56Y-58.95
X165.56Y-61.49
X165.56Y-64.03
X165.56Y-66.57
X168.1Y-58.95
X168.1Y-61.49
X168.1Y-64.03
X168.1Y-66.57
X199.7Y-93.61
X205.6Y-60.7
X205.6Y-63.24
X211.825Y-88.305
X211.825Y-90.845
X211.825Y-93.385
X211.825Y-95.925
X214.365Y-88.305
X214.365Y-90.845
X214.365Y-93.385
X214.365Y-95.925
T7
X147.986Y-85.236
X147.986Y-92.236
T8
X204.85Y-112.1
X204.85Y-142.1
X226.975Y-87.075
X226.975Y-97.225
X234.85Y-112.1
X234.85Y-142.1
T9
X147.15Y-78.175
X154.15Y-78.175
T10
X192.Y-66.2
X192.Y-96.2
T11
X229.85Y-112.1
X229.85Y-142.1
T12
X148.9Y-96.6
X148.9Y-106.76
T6
X195.977Y-108.377G85X195.623Y-108.023
G05
X197.773Y-106.581G85X197.419Y-106.227
G05
X199.569Y-104.785G85X199.215Y-104.431
G05
X199.7Y-85.99G85X199.7Y-85.99
G05
X199.7Y-88.53G85X199.7Y-88.53
G05
X199.7Y-91.07G85X199.7Y-91.07
G05
X201.643Y-54.543G85X203.057Y-55.957
G05
X201.793Y-101.807G85X203.207Y-100.393
G05
T0
M30
