G04 #@! TF.FileFunction,Soldermask,Bot*
%FSLAX46Y46*%
G04 Gerber Fmt 4.6, Leading zero omitted, Abs format (unit mm)*
G04 Created by KiCad (PCBNEW 4.0.2-stable) date Wednesday, February 14, 2018 'PMt' 02:08:58 PM*
%MOMM*%
G01*
G04 APERTURE LIST*
%ADD10C,0.100000*%
%ADD11R,1.574800X2.286000*%
%ADD12O,1.574800X2.286000*%
%ADD13C,3.000000*%
%ADD14C,1.524000*%
%ADD15R,1.000000X0.700000*%
%ADD16R,1.800000X1.500000*%
%ADD17R,2.000000X0.500000*%
%ADD18C,2.200000*%
%ADD19R,1.500000X1.250000*%
%ADD20R,1.700000X1.700000*%
%ADD21O,1.700000X1.700000*%
%ADD22R,1.500000X1.300000*%
%ADD23O,4.000000X2.000000*%
%ADD24R,1.500000X1.200000*%
%ADD25R,2.000000X2.800000*%
%ADD26C,2.700000*%
%ADD27C,4.000000*%
%ADD28C,2.000000*%
%ADD29C,2.500000*%
%ADD30R,1.220000X0.620000*%
%ADD31R,3.680000X1.270000*%
%ADD32R,1.800000X2.500000*%
%ADD33R,1.250000X1.500000*%
%ADD34R,1.300000X1.500000*%
%ADD35C,2.000000*%
%ADD36R,1.500000X1.500000*%
G04 APERTURE END LIST*
D10*
D11*
X145550000Y-70420000D03*
D12*
X148090000Y-70420000D03*
X150630000Y-70420000D03*
X153170000Y-70420000D03*
X155710000Y-70420000D03*
X158250000Y-70420000D03*
X160790000Y-70420000D03*
X163330000Y-70420000D03*
X165870000Y-70420000D03*
X168410000Y-70420000D03*
X170950000Y-70420000D03*
X173490000Y-70420000D03*
X176030000Y-70420000D03*
X178570000Y-70420000D03*
X181110000Y-70420000D03*
X181110000Y-55180000D03*
X178570000Y-55180000D03*
X176030000Y-55180000D03*
X173490000Y-55180000D03*
X170950000Y-55180000D03*
X168410000Y-55180000D03*
X165870000Y-55180000D03*
X163330000Y-55180000D03*
X160790000Y-55180000D03*
X158250000Y-55180000D03*
X155710000Y-55180000D03*
X153170000Y-55180000D03*
X150630000Y-55180000D03*
X148090000Y-55180000D03*
X145550000Y-55180000D03*
D13*
X192000000Y-66200000D03*
X192000000Y-96200000D03*
D14*
X170730000Y-83740000D03*
X170730000Y-81200000D03*
X170730000Y-78660000D03*
X173270000Y-78660000D03*
X173270000Y-81200000D03*
X173270000Y-83740000D03*
D15*
X220175000Y-91775000D03*
X220175000Y-89875000D03*
X217575000Y-90825000D03*
D16*
X231775000Y-84675000D03*
X231675000Y-99625000D03*
D17*
X223475000Y-97425000D03*
X223475000Y-96313900D03*
X223475000Y-95202800D03*
X223475000Y-94091700D03*
X223475000Y-92980600D03*
X223475000Y-91869500D03*
X223475000Y-90758400D03*
X223475000Y-89647300D03*
X223475000Y-88536200D03*
X223475000Y-87425100D03*
D18*
X226975000Y-97225000D03*
X226975000Y-87075000D03*
D19*
X217875000Y-93525000D03*
X220375000Y-93525000D03*
X220175000Y-88175000D03*
X217675000Y-88175000D03*
D20*
X211825000Y-95925000D03*
D21*
X214365000Y-95925000D03*
X211825000Y-93385000D03*
X214365000Y-93385000D03*
X211825000Y-90845000D03*
X214365000Y-90845000D03*
X211825000Y-88305000D03*
X214365000Y-88305000D03*
D22*
X217775000Y-96275000D03*
X220475000Y-96275000D03*
D10*
G36*
X199380152Y-54825736D02*
X201925736Y-52280152D01*
X205319848Y-55674264D01*
X202774264Y-58219848D01*
X199380152Y-54825736D01*
X199380152Y-54825736D01*
G37*
D23*
X199700000Y-85990000D03*
X199700000Y-88530000D03*
X199700000Y-91070000D03*
X199700000Y-93610000D03*
D24*
X184500000Y-97950000D03*
X181200000Y-97950000D03*
X184550000Y-95050000D03*
X181250000Y-95050000D03*
D25*
X145150000Y-74475000D03*
X147950000Y-74475000D03*
X143250000Y-81875000D03*
X155450000Y-81875000D03*
X146050000Y-81875000D03*
D26*
X147150000Y-78175000D03*
X154150000Y-78175000D03*
D10*
G36*
X202075736Y-104069848D02*
X199530152Y-101524264D01*
X202924264Y-98130152D01*
X205469848Y-100675736D01*
X202075736Y-104069848D01*
X202075736Y-104069848D01*
G37*
D20*
X205600000Y-60700000D03*
D21*
X205600000Y-63240000D03*
D27*
X148900000Y-96600000D03*
X148900000Y-106760000D03*
D28*
X153980000Y-101680000D03*
X154050000Y-104220000D03*
D29*
X147986000Y-85235500D03*
X147986000Y-92235500D03*
D28*
X145486000Y-86485500D03*
X145486000Y-90985500D03*
D17*
X177191000Y-94383000D03*
X177191000Y-93113000D03*
X177191000Y-91843000D03*
X177191000Y-95653000D03*
X172391000Y-91843000D03*
X172391000Y-93113000D03*
X172391000Y-94383000D03*
X172391000Y-95653000D03*
D30*
X176790000Y-83100000D03*
X179410000Y-83100000D03*
X179410000Y-82150000D03*
X179410000Y-81200000D03*
X176790000Y-82150000D03*
X176790000Y-81200000D03*
D31*
X207650000Y-124560000D03*
X212050000Y-124560000D03*
X212050000Y-127100000D03*
X207650000Y-127100000D03*
X207650000Y-129640000D03*
X212050000Y-129640000D03*
D32*
X176500000Y-85750000D03*
X179600000Y-85750000D03*
D33*
X173650000Y-100450000D03*
X173650000Y-102950000D03*
D19*
X181550000Y-92050000D03*
X184050000Y-92050000D03*
D34*
X160700000Y-97325000D03*
X160700000Y-100025000D03*
X166725000Y-95275000D03*
X166725000Y-97975000D03*
D22*
X184150000Y-102900000D03*
X181450000Y-102900000D03*
X181500000Y-100550000D03*
X184200000Y-100550000D03*
X191400000Y-52950000D03*
X188700000Y-52950000D03*
D34*
X191650000Y-76350000D03*
X191650000Y-79050000D03*
D33*
X183550000Y-82100000D03*
X183550000Y-79600000D03*
D19*
X173200000Y-75700000D03*
X170700000Y-75700000D03*
D33*
X181250000Y-78800000D03*
X181250000Y-76300000D03*
X175700000Y-100450000D03*
X175700000Y-102950000D03*
D34*
X178900000Y-76250000D03*
X178900000Y-78950000D03*
X185900000Y-82250000D03*
X185900000Y-79550000D03*
X164375000Y-95300000D03*
X164375000Y-98000000D03*
D20*
X157650000Y-86300000D03*
D21*
X157650000Y-88840000D03*
X157650000Y-91380000D03*
D34*
X194500000Y-60050000D03*
X194500000Y-62750000D03*
D33*
X169125000Y-97850000D03*
X169125000Y-95350000D03*
D10*
G36*
X197320280Y-108306066D02*
X195906066Y-109720280D01*
X194279720Y-108093934D01*
X195693934Y-106679720D01*
X197320280Y-108306066D01*
X197320280Y-108306066D01*
G37*
D35*
X197702117Y-106510015D02*
X197489985Y-106297883D01*
X199498168Y-104713964D02*
X199286036Y-104501832D01*
D33*
X220925000Y-115675000D03*
X220925000Y-113175000D03*
X223225000Y-115675000D03*
X223225000Y-113175000D03*
X218650000Y-115675000D03*
X218650000Y-113175000D03*
X216425000Y-115675000D03*
X216425000Y-113175000D03*
D34*
X220925000Y-120850000D03*
X220925000Y-118150000D03*
X219650000Y-136500000D03*
X219650000Y-133800000D03*
X218625000Y-118150000D03*
X218625000Y-120850000D03*
D27*
X204850000Y-112100000D03*
X204850000Y-142100000D03*
X234850000Y-142100000D03*
X234850000Y-112100000D03*
X229850000Y-112100000D03*
X229850000Y-142100000D03*
D36*
X223050000Y-130300000D03*
X216650000Y-123900000D03*
D34*
X192300000Y-57200000D03*
X192300000Y-59900000D03*
X186300000Y-57300000D03*
X186300000Y-60000000D03*
X188550000Y-60100000D03*
X188550000Y-62800000D03*
D20*
X168100000Y-58950000D03*
D21*
X165560000Y-58950000D03*
X168100000Y-61490000D03*
X165560000Y-61490000D03*
X168100000Y-64030000D03*
X165560000Y-64030000D03*
X168100000Y-66570000D03*
X165560000Y-66570000D03*
D33*
X191600000Y-84150000D03*
X191600000Y-81650000D03*
D34*
X194000000Y-81550000D03*
X194000000Y-84250000D03*
D33*
X157650000Y-97250000D03*
X157650000Y-94750000D03*
X168000000Y-78700000D03*
X168000000Y-81200000D03*
D34*
X176050000Y-76250000D03*
X176050000Y-78950000D03*
X161725000Y-78775000D03*
X161725000Y-81475000D03*
X164700000Y-78725000D03*
X164700000Y-81425000D03*
D22*
X165175000Y-87900000D03*
X162475000Y-87900000D03*
D15*
X165125000Y-85625000D03*
X165125000Y-83725000D03*
X162525000Y-84675000D03*
D34*
X167450000Y-103550000D03*
X167450000Y-106250000D03*
M02*
